<?xml version="1.0" standalone="no"?><!DOCTYPE svg PUBLIC "-//W3C//DTD SVG 1.1//EN" "http://www.w3.org/Graphics/SVG/1.1/DTD/svg11.dtd"><svg class="icon" width="200px" height="200.00px" viewBox="0 0 1024 1024" version="1.1" xmlns="http://www.w3.org/2000/svg"><path d="M934.601434 800.471157c-28.226077-68.959099-128.312616-86.874992-175.751855-134.365201-99.385934-99.53485-75.666315-262.474932-246.712824-272.2834-171.247396 9.808467-147.426833 172.748549-246.912711 272.2834-47.540182 47.491209-147.425834 65.406103-175.750856 134.365201-34.729408 84.773178 22.419353 161.337986 65.357131 194.317382 86.373275 66.107707 225.092021 0.748578 318.172512-9.006919 13.31249-1.45418 26.222207-1.652068 39.03398-1.652068 12.711829 0 25.722489 0.197888 39.03398 1.652068 92.979548 9.755497 231.899181 75.113627 318.274455 9.006919 42.935779-32.979396 99.982598-109.544204 65.256188-194.317382M1016.968968 426.651037c-22.419353 84.022601-91.87717 138.518859-154.933598 121.603401-62.952487-16.965429-95.880912-98.68433-73.262671-182.805875 22.419353-84.022601 91.781224-138.468887 154.833655-121.554429 63.155373 16.913459 95.88391 98.68433 73.362614 182.756903M235.399868 365.546508c22.419353 84.022601-10.308185 165.944387-73.463558 182.758901C98.983823 565.218868 29.524007 510.772582 7.104654 426.749981c-22.520296-84.171517 10.307185-165.942388 73.262671-182.855847 63.153374-16.814515 132.412303 37.531828 155.032543 121.652374M468.599315 124.641407c22.520296 83.97163-10.308185 165.843444-73.362614 182.756903-63.05343 16.814515-132.414302-37.632771-154.833655-121.554428-22.618241-84.172517 10.209241-165.942388 73.364613-182.756903C376.821089-13.82748 446.179963 40.519862 468.599315 124.641407M783.770521 185.843882c-22.518297 83.921658-91.879169 138.417916-155.033543 121.504456-62.854542-16.864486-95.780968-98.785273-73.262671-182.706931 22.519296-84.022601 91.879169-138.468887 154.833655-121.554428 63.05443 16.814515 95.980855 98.68533 73.462559 182.756903" fill="#040000" /></svg>