<?xml version="1.0" standalone="no"?><!DOCTYPE svg PUBLIC "-//W3C//DTD SVG 1.1//EN" "http://www.w3.org/Graphics/SVG/1.1/DTD/svg11.dtd"><svg class="icon" width="200px" height="200.00px" viewBox="0 0 1024 1024" version="1.1" xmlns="http://www.w3.org/2000/svg"><path d="M288.272519 92.361571 119.164007 342.306156 129.72248 379.121644 963.845968 367.054817 963.845968 309.73739 814.517965 84.99172Z" fill="#CC0032" /><path d="M241.475703 770.648828c6.247284 0 11.31265-5.060249 11.31265-11.31265l0-22.6253c0-6.253424-5.065366-11.31265-11.31265-11.31265s-11.31265 5.060249-11.31265 11.31265l0 22.6253C230.163053 765.589602 235.228419 770.648828 241.475703 770.648828z" fill="#5A5A5A" /><path d="M298.039977 862.410742l237.016135 0c6.247284 0 11.31265-5.060249 11.31265-11.31265s-5.065366-11.31265-11.31265-11.31265L298.039977 839.785441c-21.945825 0-40.677445-15.643282-44.538379-37.208437-1.099031-6.142907-6.959505-10.263761-13.130042-9.136078-6.15314 1.105171-10.241248 6.982018-9.142218 13.135158C237.029438 838.923818 265.123286 862.410742 298.039977 862.410742z" fill="#5A5A5A" /><path d="M848.397586 81.124645c-10.357905-13.132088-26.396183-21.576411-44.420699-21.576411-0.164752 0-0.275269-0.055259-0.435928-0.058328L292.205085 59.489906c-17.84953 0-33.736359 8.296967-44.102451 21.211091L96.05059 342.306156c0 0 0 97.011474 0 113.127524 0 30.140461 10.818393 63.042825 28.309766 84.845387l0.854461 311.102481c0 62.483076 52.231595 113.12957 116.656907 113.12957l612.441597 0c64.425312 0 118.472252-50.649564 118.472252-113.13264L972.785571 540.278043c19.811208-23.295566 28.281113-47.241954 28.281113-84.845387 0-30.971385 0-113.127524 0-113.127524L848.397586 81.124645zM916.222321 794.814204l0 56.564273c0 31.234375-29.698392 56.56632-61.909002 56.56632L241.871723 907.944797c-32.215726 0-60.893882-25.328875-60.893882-56.56325l0-56.561204 0-56.568367-0.081864-169.690774c16.352433 0 40.672328 0.005117 55.5512 0.005117 30.374798 0 78.543867-27.102265 98.911754-68.557422 22.868847 40.297798 65.600067 68.557422 106.367563 68.557422 43.092447 0 90.521666-25.648147 106.361423-62.663178 15.84385 36.129872 62.285578 62.663178 104.495936 62.663178 41.86755 0 85.209684-30.761608 107.148345-72.814376 25.656333 42.440601 46.373167 72.808236 99.924827 72.808236 8.283664 0 49.329499 1.343601 56.56325 0l0 169.690774L916.220275 794.814204zM944.503435 455.43368c-0.402159 39.054481-45.439912 56.582693-84.845387 56.564273-45.468564-0.025583-86.403882-27.54638-86.403882-56.564273l-26.722618 0c0 28.52773-50.664913 56.564273-94.260827 56.564273-41.828664 0-90.481757-28.918633-90.481757-56.564273l-27.395954 0c0 28.52773-49.485041 56.564273-91.313705 56.564273-43.598984 0-93.375667-20.083407-93.375667-56.564273l-26.776853 0c0 28.439726-43.690058 57.45148-85.597517 57.45148-42.543955 0-84.715427-18.403139-84.715427-57.45148l0-56.56325 791.889595 0L944.503435 455.43368zM946.271708 342.309226l-792.519951-0.00307 119.436206-205.082842c9.286504-11.710716 23.074531-19.642362 38.781258-21.164019l466.440361 0c0.334621 0.017396 0.605797 0.13917 0.949628 0.13917 17.937534 0 33.864272 8.400321 44.227294 21.422915l121.747855 204.685799 0.936325 0L946.270684 342.309226z" fill="#5A5A5A" /></svg>