<?xml version="1.0" standalone="no"?><!DOCTYPE svg PUBLIC "-//W3C//DTD SVG 1.1//EN" "http://www.w3.org/Graphics/SVG/1.1/DTD/svg11.dtd"><svg class="icon" width="200px" height="192.12px" viewBox="0 0 1066 1024" version="1.1" xmlns="http://www.w3.org/2000/svg"><path d="M354.666667 576h33.973333c5.429333 0 10.741333 1.504 15.36 4.352l29.525333 18.165333a8 8 0 0 1 3.808 6.816v16a24 24 0 0 1-24 24h-2.666666v96.501334c10.634667 1.429333 18.069333 5.92 22.346666 13.6 2.378667 4.298667 3.392 8.96 3.861334 13.258666 0.458667 4.170667 0.458667 8.533333 0.458666 12.373334v0.266666a8 8 0 0 1-8 8H275.552a40.885333 40.885333 0 0 1-21.013333-75.978666 8 8 0 0 1 8.234666 13.728 24.885333 24.885333 0 0 0 12.778667 46.250666c3.402667 0 5.514667-0.885333 6.922667-1.877333 1.482667-1.045333 2.645333-2.538667 3.541333-4.341333a20.544 20.544 0 0 0 1.984-7.36v-0.373334l0.042667-1.525333a151.68 151.68 0 0 1 2.773333-23.328c2.773333-13.770667 8.501333-31.658667 20.821333-44.149333 9.045333-9.173333 13.962667-22.592 16.501334-35.882667C330.666667 641.386667 330.666667 629.418667 330.666667 624v-24A24 24 0 0 1 354.666667 576z m-58.666667 184l8 0.277333v0.064l-0.010667 0.106667-0.021333 0.298667a36.266667 36.266667 0 0 1-0.533333 4.053333c-0.416 2.272-1.194667 5.333333-2.666667 8.533333h77.333333c-0.96-5.269333-3.626667-10.730667-10.816-14.08a18.56 18.56 0 0 0-5.141333-1.408 50.069333 50.069333 0 0 0-7.477333-0.586666l-3.018667 0.042666-1.504 0.021334h-0.64a8 8 0 1 1-0.298667-15.989334l0.661334-0.010666 1.536-0.021334 3.264-0.042666c2.506667 0 5.28 0.170667 8 0.501333v-24.394667a8 8 0 0 1 16 0v29.909334c11.36 7.274667 14.656 18.165333 15.616 26.058666h26.912a52.266667 52.266667 0 0 0-0.224-2.88c-0.352-3.210667-1.002667-5.546667-1.952-7.253333-1.386667-2.496-4.618667-5.866667-16.352-5.866667a8 8 0 0 1-8-8v-112a8 8 0 0 1 8-8h10.666666a8 8 0 0 0 8-8v-11.52l-25.717333-15.84a13.312 13.312 0 0 0-6.976-1.973333h-33.984a8 8 0 0 0-7.989333 8v23.808a9.834667 9.834667 0 0 0 2.186666 5.909333c1.077333 1.216 2.773333 2.282667 5.813334 2.282667 3.061333 0 4.832-1.077333 5.930666-2.336A9.408 9.408 0 0 0 362.666667 623.466667a8 8 0 0 1 16 0c0 5.909333-1.888 12-6.037334 16.736-4.266667 4.874667-10.496 7.797333-17.962666 7.797333-3.328 0-6.389333-0.576-9.12-1.642667a148.48 148.48 0 0 1-1.685334 11.146667c-2.794667 14.570667-8.544 31.658667-20.832 44.117333-9.013333 9.130667-13.952 23.253333-16.522666 36.053334a135.253333 135.253333 0 0 0-2.506667 21.973333v0.629333l-8-0.277333z m90.666667 29.333333v-8 8zM713.344 647.050667c4.128 2.304 9.045333 3.616 14.613333 3.616 9.034667 0 16.586667-3.274667 21.834667-9.002667 5.130667-5.610667 7.498667-12.970667 7.498667-20.330667a8 8 0 0 0-16 0c0 4.021333-1.28 7.328-3.306667 9.536-1.92 2.090667-5.034667 3.797333-10.026667 3.797334-4.789333 0-7.786667-1.728-9.749333-3.946667a15.573333 15.573333 0 0 1-3.541333-8.96v-21.76A24 24 0 0 1 738.666667 576h33.973333c5.429333 0 10.741333 1.504 15.36 4.352l29.525333 18.165333a8 8 0 0 1 3.808 6.816v16a24 24 0 0 1-24 24h-2.666666v101.685334c9.813333 0.938667 17.258667 3.904 21.834666 10.293333 2.741333 3.818667 3.84 8.106667 4.352 12.032 0.48 3.754667 0.48 7.850667 0.48 11.626667v0.362666a8 8 0 0 1-8 8h-34.688v-8.256c0-6.101333 0.021333-23.552-16-33.802666v-29.909334a8 8 0 0 0-16 0v24.170667a49.301333 49.301333 0 0 0-7.434666-0.234667c-0.277333 0-0.522667 0.021333-0.682667 0.032h-0.266667l-0.032 0.010667a8 8 0 1 0 0.874667 15.978667h0.032l0.138667-0.010667 0.533333-0.021333c0.437333-0.021333 0.992-0.032 1.504-0.032 4.608 0 7.626667 0.778667 9.610667 1.813333l0.352 0.181333c11.082667 5.162667 11.370667 15.349333 11.370666 22.08V789.333333h-103.093333a40.885333 40.885333 0 0 1-21.013333-75.978666 8 8 0 0 1 8.234666 13.728 24.885333 24.885333 0 0 0 12.778667 46.250666c3.402667 0 5.514667-0.885333 6.922667-1.877333 1.482667-1.045333 2.645333-2.538667 3.530666-4.341333a20.544 20.544 0 0 0 1.994667-7.36v-0.373334l0.042667-1.525333a151.68 151.68 0 0 1 2.773333-23.328c2.773333-13.770667 8.501333-31.658667 20.821333-44.149333 9.045333-9.173333 13.962667-22.592 16.501334-35.882667 0.490667-2.538667 0.885333-5.034667 1.194666-7.445333zM328.213333 238.869333c4.437333-3.2 9.6-4.202667 13.12-4.202666h15.424a26.666667 26.666667 0 0 1 13.717334 3.797333l19.008 11.413333a10.666667 10.666667 0 0 1 5.184 9.141334V272a16 16 0 0 1-16 16H373.333333v85.738667c4.490667 0.693333 8.992 2.368 12.746667 5.493333 5.44 4.533333 8.586667 11.488 8.586667 20.768a5.333333 5.333333 0 0 1-5.333334 5.333333H266.666667a32 32 0 0 1-19.232-57.578666 5.333333 5.333333 0 0 1 6.410666 8.522666A21.333333 21.333333 0 0 0 266.666667 394.666667c3.072 0 5.013333-0.746667 6.293333-1.6a8.714667 8.714667 0 0 0 2.933333-3.456A14.325333 14.325333 0 0 0 277.333333 384v-0.48l0.042667-1.173333a99.552 99.552 0 0 1 2.773333-18.304c2.816-11.2 8.490667-25.557333 20.074667-37.152C319.893333 307.232 320 280.864 320 272V256c0-8.138667 3.52-13.738667 8.213333-17.130667z m1.642667 48.064c-1.653333 13.397333-6.709333 32.128-22.08 47.509334-9.738667 9.738667-14.730667 22.048-17.269333 32.181333a88.778667 88.778667 0 0 0-2.474667 16.202667 36.906667 36.906667 0 0 0-0.032 0.928V384.352a21.173333 21.173333 0 0 1-0.32 3.029333 25.013333 25.013333 0 0 1-2.389333 7.285334h65.845333c-1.066667-3.413333-3.232-6.922667-6.954667-8.874667A17.301333 17.301333 0 0 0 336 384H325.333333a5.333333 5.333333 0 0 1 0-10.666667h10.666667c1.877333 0 3.658667 0.149333 5.333333 0.426667V346.666667a5.333333 5.333333 0 0 1 10.666667 0v31.445333c6.186667 4.458667 9.034667 11.093333 10.112 16.554667h21.333333c-0.8-3.498667-2.4-5.749333-4.192-7.232-2.741333-2.293333-6.72-3.434667-11.253333-3.434667a5.333333 5.333333 0 0 1-5.333333-5.333333v-96a5.333333 5.333333 0 0 1 5.333333-5.333334h10.666667a5.333333 5.333333 0 0 0 5.333333-5.333333v-12.981333l-19.008-11.413334a16 16 0 0 0-8.234667-2.272H341.333333c-1.813333 0-4.650667 0.586667-6.88 2.197334-1.962667 1.408-3.786667 3.808-3.786666 8.469333v16c0 0.928 0.32 2.432 1.130666 3.552 0.608 0.853333 1.674667 1.781333 4.202667 1.781333 2.528 0 3.594667-0.938667 4.202667-1.781333A6.592 6.592 0 0 0 341.333333 272a5.333333 5.333333 0 0 1 10.666667 0c0 2.634667-0.746667 6.464-3.136 9.781333-2.592 3.594667-6.858667 6.218667-12.864 6.218667a17.28 17.28 0 0 1-6.144-1.066667zM288 384.010667L282.666667 384l5.333333 0.010667zM682.666667 234.666667c-3.52 0-8.682667 1.013333-13.12 4.202666-4.693333 3.392-8.213333 8.992-8.213334 17.130667v13.365333c0 1.365333 0.458667 3.541333 1.664 5.216 1.002667 1.397333 2.730667 2.773333 6.325334 2.773334 3.594667 0 5.322667-1.376 6.325333-2.773334a9.568 9.568 0 0 0 1.664-5.216 5.333333 5.333333 0 1 1 10.666667 0c0 3.082667-0.874667 7.573333-3.669334 11.445334-2.986667 4.16-7.914667 7.221333-14.986666 7.221333-3.413333 0-6.346667-0.725333-8.789334-1.930667-1.514667 11.861333-5.973333 27.797333-18.976 40.789334-11.594667 11.594667-17.258667 25.952-20.064 37.152a99.552 99.552 0 0 0-2.773333 18.293333 54.314667 54.314667 0 0 0-0.042667 1.184v0.330667l-0.010666 0.106666V384c0 0.053333 0 0.16-0.021334 0.309333a14.325333 14.325333 0 0 1-1.418666 5.312 8.714667 8.714667 0 0 1-2.933334 3.445334c-1.28 0.853333-3.232 1.6-6.293333 1.6a21.333333 21.333333 0 0 1-12.8-38.4 5.333333 5.333333 0 1 0-6.410667-8.533334A32 32 0 0 0 608 405.333333h85.333333v-5.333333c0-4.32-2.016-11.157333-7.818666-14.208A17.258667 17.258667 0 0 0 677.333333 384h-10.666666a5.333333 5.333333 0 0 1 0-10.666667h10.666666c1.877333 0 3.658667 0.149333 5.333334 0.426667V346.666667a5.333333 5.333333 0 0 1 10.666666 0v31.445333c8.426667 6.08 10.666667 16.192 10.666667 21.888v5.333333h26.666667a5.333333 5.333333 0 0 0 5.333333-5.333333c0-9.28-3.157333-16.245333-8.586667-20.768A25.888 25.888 0 0 0 714.666667 373.738667V288h5.333333a16 16 0 0 0 16-16v-12.981333a10.666667 10.666667 0 0 0-5.184-9.141334l-19.008-11.413333A26.666667 26.666667 0 0 0 698.090667 234.666667H682.666667z" fill="#212121" /></svg>