<?xml version="1.0" standalone="no"?><!DOCTYPE svg PUBLIC "-//W3C//DTD SVG 1.1//EN" "http://www.w3.org/Graphics/SVG/1.1/DTD/svg11.dtd"><svg class="icon" width="200px" height="200.00px" viewBox="0 0 1024 1024" version="1.1" xmlns="http://www.w3.org/2000/svg"><path d="M983.04 791.04a378.8288 378.8288 0 0 1-72.192-100.864c13.312-15.872 20.992-35.84 20.992-57.856V450.048c0-82.944-67.072-150.016-150.016-150.016h-119.808c-37.888 0-72.704 14.336-99.328 37.888-21.504-57.344-76.288-97.792-140.8-97.792H181.76C99.328 240.128 31.744 307.2 31.744 390.144v242.176c0 49.664 40.448 90.112 90.112 90.112 14.848 0 28.672-3.584 40.96-10.24 2.048 1.536 4.608 3.072 7.168 4.096l41.984 17.92v199.68c0 49.664 40.448 90.112 90.112 90.112h419.84c49.664 0 90.112-40.448 90.112-90.112v-92.16h150.016c16.384 0 30.208-13.312 30.208-30.208-0.512-7.68-3.584-15.36-9.216-20.48zM571.904 512V450.048c0-49.664 40.448-90.112 90.112-90.112h119.808c49.664 0 90.112 40.448 90.112 90.112v181.76c0 16.384-13.312 30.208-30.208 30.208s-30.208-13.312-30.208-30.208V512c0-16.384-13.312-30.208-30.208-30.208s-30.208 13.312-30.208 30.208v26.112l-150.016 64.512v-0.512c0-31.232-11.776-59.392-31.232-80.896 1.536-3.072 2.048-6.144 2.048-9.216z m-29.696 90.112c0 33.28-27.136 59.904-59.904 59.904s-59.904-27.136-59.904-59.904 27.136-59.904 59.904-59.904 59.904 26.624 59.904 59.904zM181.76 419.84c-16.384 0-30.208 13.312-30.208 30.208v181.76c0 16.384-13.312 30.208-30.208 30.208s-30.208-13.312-30.208-30.208V390.144c0-49.664 40.448-90.112 90.112-90.112h240.128c49.664 0 90.112 40.448 90.112 90.112v95.744c-9.728-2.56-19.968-3.584-30.208-3.584-66.048 0-119.808 53.76-119.808 119.808v0.512l-150.016-64.512V450.048c0.512-16.384-12.8-30.208-29.696-30.208z m150.016 544.256H302.08c-16.384 0-30.208-13.312-30.208-30.208v-174.08l59.904 25.6v178.688z m240.128-198.144v198.144H392.192v-198.144c0-11.776-7.168-23.04-18.432-27.648l-168.448-72.192c4.608-10.752 6.656-22.528 6.656-33.792V604.16l179.2 76.8c22.016 25.6 54.272 41.472 90.624 41.472s68.608-15.872 90.624-41.472l179.2-76.8v28.16c0 11.776 2.048 23.04 6.656 33.792l-168.448 72.192c-10.752 4.608-17.92 15.36-17.92 27.648z m209.92 15.872c-16.384 0-30.208 13.312-30.208 30.208v121.856c0 16.384-13.312 30.208-30.208 30.208h-90.112v-178.176l155.136-66.56c4.608-2.048 8.192-4.608 11.264-8.704 13.312 7.68 28.16 11.264 43.52 11.264 5.632 0 11.776-0.512 16.896-1.536 10.752 21.504 23.552 41.984 37.888 61.44h-114.176zM331.776 0C265.728 0 211.968 53.76 211.968 119.808s53.76 119.808 119.808 119.808 119.808-53.76 119.808-119.808S398.336 0 331.776 0z m0 180.224c-33.28 0-59.904-27.136-59.904-59.904s27.136-59.904 59.904-59.904S392.192 87.04 392.192 119.808s-27.136 60.416-60.416 60.416z" fill="#FF9F60" /><path d="M692.224 59.904c-66.048 0-119.808 53.76-119.808 119.808s53.76 119.808 119.808 119.808 119.808-53.76 119.808-119.808-53.76-119.808-119.808-119.808z m0 180.224c-33.28 0-59.904-27.136-59.904-59.904s27.136-59.904 59.904-59.904 59.904 27.136 59.904 59.904-27.136 59.904-59.904 59.904z" fill="#FF9F60" /></svg>