<svg width="977" height="129" viewBox="0 0 977 129" xmlns="http://www.w3.org/2000/svg">
    <g fill="none" fill-rule="evenodd">
        <path d="M718.638 93h-14.277c-2.597 0-4.361-1.579-4.361-4.215 0-3.679.866-9.327 5.652-9.327.506 0 2.646 2.263 5.848 2.263s5.342-2.263 5.848-2.263c4.786 0 5.652 5.648 5.652 9.327 0 2.636-1.764 4.215-4.362 4.215zM711.5 80.5c-3.463 0-6.273-2.8-6.273-6.25S708.037 68 711.5 68c3.463 0 6.273 2.8 6.273 6.25s-2.81 6.25-6.273 6.25z" fill="#AFD1B6" fill-rule="nonzero"/>
        <path d="M803.638 93h-14.277c-2.597 0-4.361-1.579-4.361-4.215 0-3.679.866-9.327 5.652-9.327.506 0 2.646 2.263 5.848 2.263s5.342-2.263 5.848-2.263c4.786 0 5.652 5.648 5.652 9.327 0 2.636-1.764 4.215-4.362 4.215zM796.5 80.5c-3.463 0-6.273-2.8-6.273-6.25S793.037 68 796.5 68c3.463 0 6.273 2.8 6.273 6.25s-2.81 6.25-6.273 6.25zM887.638 93h-14.277c-2.597 0-4.361-1.579-4.361-4.215 0-3.679.866-9.327 5.652-9.327.506 0 2.646 2.263 5.848 2.263s5.342-2.263 5.848-2.263c4.786 0 5.652 5.648 5.652 9.327 0 2.636-1.764 4.215-4.362 4.215zM880.5 80.5c-3.463 0-6.273-2.8-6.273-6.25S877.037 68 880.5 68c3.463 0 6.273 2.8 6.273 6.25s-2.81 6.25-6.273 6.25z" fill="#DBDBDB" fill-rule="nonzero"/>
        <path d="M746.638 93h-14.277c-2.597 0-4.361-1.579-4.361-4.215 0-3.679.866-9.327 5.652-9.327.506 0 2.646 2.263 5.848 2.263s5.342-2.263 5.848-2.263c4.786 0 5.652 5.648 5.652 9.327 0 2.636-1.764 4.215-4.362 4.215zM739.5 80.5c-3.463 0-6.273-2.8-6.273-6.25S736.037 68 739.5 68c3.463 0 6.273 2.8 6.273 6.25s-2.81 6.25-6.273 6.25z" fill="#AFD1B6" fill-rule="nonzero"/>
        <path d="M831.638 93h-14.277c-2.597 0-4.361-1.579-4.361-4.215 0-3.679.866-9.327 5.652-9.327.506 0 2.646 2.263 5.848 2.263s5.342-2.263 5.848-2.263c4.786 0 5.652 5.648 5.652 9.327 0 2.636-1.764 4.215-4.362 4.215zM824.5 80.5c-3.463 0-6.273-2.8-6.273-6.25S821.037 68 824.5 68c3.463 0 6.273 2.8 6.273 6.25s-2.81 6.25-6.273 6.25zM916.638 93h-14.277c-2.597 0-4.361-1.579-4.361-4.215 0-3.679.866-9.327 5.652-9.327.506 0 2.646 2.263 5.848 2.263s5.342-2.263 5.848-2.263c4.786 0 5.652 5.648 5.652 9.327 0 2.636-1.764 4.215-4.362 4.215zM909.5 80.5c-3.463 0-6.273-2.8-6.273-6.25S906.037 68 909.5 68c3.463 0 6.273 2.8 6.273 6.25s-2.81 6.25-6.273 6.25zM718.638 125h-14.277c-2.597 0-4.361-1.579-4.361-4.215 0-3.679.866-9.327 5.652-9.327.506 0 2.646 2.263 5.848 2.263s5.342-2.263 5.848-2.263c4.786 0 5.652 5.648 5.652 9.327 0 2.636-1.764 4.215-4.362 4.215zm-7.138-12.5c-3.463 0-6.273-2.8-6.273-6.25s2.81-6.25 6.273-6.25c3.463 0 6.273 2.8 6.273 6.25s-2.81 6.25-6.273 6.25z" fill="#DBDBDB" fill-rule="nonzero"/>
        <path d="M775.638 93h-14.277c-2.597 0-4.361-1.579-4.361-4.215 0-3.679.866-9.327 5.652-9.327.506 0 2.646 2.263 5.848 2.263s5.342-2.263 5.848-2.263c4.786 0 5.652 5.648 5.652 9.327 0 2.636-1.764 4.215-4.362 4.215zM768.5 80.5c-3.463 0-6.273-2.8-6.273-6.25S765.037 68 768.5 68c3.463 0 6.273 2.8 6.273 6.25s-2.81 6.25-6.273 6.25z" fill="#AFD1B6" fill-rule="nonzero"/>
        <path d="M860.638 93h-14.277c-2.597 0-4.361-1.579-4.361-4.215 0-3.679.866-9.327 5.652-9.327.506 0 2.646 2.263 5.848 2.263s5.342-2.263 5.848-2.263c4.786 0 5.652 5.648 5.652 9.327 0 2.636-1.764 4.215-4.362 4.215zM853.5 80.5c-3.463 0-6.273-2.8-6.273-6.25S850.037 68 853.5 68c3.463 0 6.273 2.8 6.273 6.25s-2.81 6.25-6.273 6.25zM944.638 93h-14.277c-2.597 0-4.361-1.579-4.361-4.215 0-3.679.866-9.327 5.652-9.327.506 0 2.646 2.263 5.848 2.263s5.342-2.263 5.848-2.263c4.786 0 5.652 5.648 5.652 9.327 0 2.636-1.764 4.215-4.362 4.215zM937.5 80.5c-3.463 0-6.273-2.8-6.273-6.25S934.037 68 937.5 68c3.463 0 6.273 2.8 6.273 6.25s-2.81 6.25-6.273 6.25zM746.638 125h-14.277c-2.597 0-4.361-1.579-4.361-4.215 0-3.679.866-9.327 5.652-9.327.506 0 2.646 2.263 5.848 2.263s5.342-2.263 5.848-2.263c4.786 0 5.652 5.648 5.652 9.327 0 2.636-1.764 4.215-4.362 4.215zm-7.138-12.5c-3.463 0-6.273-2.8-6.273-6.25s2.81-6.25 6.273-6.25c3.463 0 6.273 2.8 6.273 6.25s-2.81 6.25-6.273 6.25zM972.638 93h-14.277c-2.597 0-4.361-1.579-4.361-4.215 0-3.679.866-9.327 5.652-9.327.506 0 2.646 2.263 5.848 2.263s5.342-2.263 5.848-2.263c4.786 0 5.652 5.648 5.652 9.327 0 2.636-1.764 4.215-4.362 4.215zM965.5 80.5c-3.463 0-6.273-2.8-6.273-6.25S962.037 68 965.5 68c3.463 0 6.273 2.8 6.273 6.25s-2.81 6.25-6.273 6.25zM774.638 125h-14.277c-2.597 0-4.361-1.579-4.361-4.215 0-3.679.866-9.327 5.652-9.327.506 0 2.646 2.263 5.848 2.263s5.342-2.263 5.848-2.263c4.786 0 5.652 5.648 5.652 9.327 0 2.636-1.764 4.215-4.362 4.215zm-7.138-12.5c-3.463 0-6.273-2.8-6.273-6.25s2.81-6.25 6.273-6.25c3.463 0 6.273 2.8 6.273 6.25s-2.81 6.25-6.273 6.25z" fill="#DBDBDB" fill-rule="nonzero"/>
        <path d="M18.638 62H4.361C1.764 62 0 60.358 0 57.616c0-3.826.866-9.7 5.652-9.7.506 0 2.646 2.354 5.848 2.354s5.342-2.353 5.848-2.353c4.786 0 5.652 5.873 5.652 9.699C23 60.358 21.236 62 18.638 62zM11.5 49c-3.463 0-6.273-2.911-6.273-6.5S8.037 36 11.5 36c3.463 0 6.273 2.911 6.273 6.5S14.963 49 11.5 49zM718.638 61h-14.277c-2.597 0-4.361-1.579-4.361-4.215 0-3.679.866-9.327 5.652-9.327.506 0 2.646 2.263 5.848 2.263s5.342-2.263 5.848-2.263c4.786 0 5.652 5.648 5.652 9.327 0 2.636-1.764 4.215-4.362 4.215zM711.5 48.5c-3.463 0-6.273-2.8-6.273-6.25S708.037 36 711.5 36c3.463 0 6.273 2.8 6.273 6.25s-2.81 6.25-6.273 6.25zM18.638 95H4.361C1.764 95 0 93.358 0 90.616c0-3.826.866-9.7 5.652-9.7.506 0 2.646 2.354 5.848 2.354s5.342-2.353 5.848-2.353c4.786 0 5.652 5.873 5.652 9.699C23 93.358 21.236 95 18.638 95zM11.5 82c-3.463 0-6.273-2.911-6.273-6.5S8.037 69 11.5 69c3.463 0 6.273 2.911 6.273 6.5S14.963 82 11.5 82z" fill="#AFD1B6" fill-rule="nonzero"/>
        <path d="M831.638 61h-14.277c-2.597 0-4.361-1.579-4.361-4.215 0-3.679.866-9.327 5.652-9.327.506 0 2.646 2.263 5.848 2.263s5.342-2.263 5.848-2.263c4.786 0 5.652 5.648 5.652 9.327 0 2.636-1.764 4.215-4.362 4.215zM824.5 48.5c-3.463 0-6.273-2.8-6.273-6.25S821.037 36 824.5 36c3.463 0 6.273 2.8 6.273 6.25s-2.81 6.25-6.273 6.25z" fill="#DBDBDB" fill-rule="nonzero"/>
        <path d="M78.638 62H64.361C61.764 62 60 60.358 60 57.616c0-3.826.866-9.7 5.652-9.7.506 0 2.646 2.354 5.848 2.354s5.342-2.353 5.848-2.353c4.786 0 5.652 5.873 5.652 9.699C83 60.358 81.236 62 78.638 62zM71.5 49c-3.463 0-6.273-2.911-6.273-6.5S68.037 36 71.5 36c3.463 0 6.273 2.911 6.273 6.5S74.963 49 71.5 49zM775.638 61h-14.277c-2.597 0-4.361-1.579-4.361-4.215 0-3.679.866-9.327 5.652-9.327.506 0 2.646 2.263 5.848 2.263s5.342-2.263 5.848-2.263c4.786 0 5.652 5.648 5.652 9.327 0 2.636-1.764 4.215-4.362 4.215zM768.5 48.5c-3.463 0-6.273-2.8-6.273-6.25S765.037 36 768.5 36c3.463 0 6.273 2.8 6.273 6.25s-2.81 6.25-6.273 6.25zM78.638 95H64.361C61.764 95 60 93.358 60 90.616c0-3.826.866-9.7 5.652-9.7.506 0 2.646 2.354 5.848 2.354s5.342-2.353 5.848-2.353c4.786 0 5.652 5.873 5.652 9.699C83 93.358 81.236 95 78.638 95zM71.5 82c-3.463 0-6.273-2.911-6.273-6.5S68.037 69 71.5 69c3.463 0 6.273 2.911 6.273 6.5S74.963 82 71.5 82z" fill="#AFD1B6" fill-rule="nonzero"/>
        <path d="M887.638 61h-14.277c-2.597 0-4.361-1.579-4.361-4.215 0-3.679.866-9.327 5.652-9.327.506 0 2.646 2.263 5.848 2.263s5.342-2.263 5.848-2.263c4.786 0 5.652 5.648 5.652 9.327 0 2.636-1.764 4.215-4.362 4.215zM880.5 48.5c-3.463 0-6.273-2.8-6.273-6.25S877.037 36 880.5 36c3.463 0 6.273 2.8 6.273 6.25s-2.81 6.25-6.273 6.25zM944.638 61h-14.277c-2.597 0-4.361-1.579-4.361-4.215 0-3.679.866-9.327 5.652-9.327.506 0 2.646 2.263 5.848 2.263s5.342-2.263 5.848-2.263c4.786 0 5.652 5.648 5.652 9.327 0 2.636-1.764 4.215-4.362 4.215zM937.5 48.5c-3.463 0-6.273-2.8-6.273-6.25S934.037 36 937.5 36c3.463 0 6.273 2.8 6.273 6.25s-2.81 6.25-6.273 6.25z" fill="#DBDBDB" fill-rule="nonzero"/>
        <path d="M48.638 62H34.361C31.764 62 30 60.358 30 57.616c0-3.826.866-9.7 5.652-9.7.506 0 2.646 2.354 5.848 2.354s5.342-2.353 5.848-2.353c4.786 0 5.652 5.873 5.652 9.699C53 60.358 51.236 62 48.638 62zM41.5 49c-3.463 0-6.273-2.911-6.273-6.5S38.037 36 41.5 36c3.463 0 6.273 2.911 6.273 6.5S44.963 49 41.5 49zM746.638 61h-14.277c-2.597 0-4.361-1.579-4.361-4.215 0-3.679.866-9.327 5.652-9.327.506 0 2.646 2.263 5.848 2.263s5.342-2.263 5.848-2.263c4.786 0 5.652 5.648 5.652 9.327 0 2.636-1.764 4.215-4.362 4.215zM739.5 48.5c-3.463 0-6.273-2.8-6.273-6.25S736.037 36 739.5 36c3.463 0 6.273 2.8 6.273 6.25s-2.81 6.25-6.273 6.25zM48.638 95H34.361C31.764 95 30 93.358 30 90.616c0-3.826.866-9.7 5.652-9.7.506 0 2.646 2.354 5.848 2.354s5.342-2.353 5.848-2.353c4.786 0 5.652 5.873 5.652 9.699C53 93.358 51.236 95 48.638 95zM41.5 82c-3.463 0-6.273-2.911-6.273-6.5S38.037 69 41.5 69c3.463 0 6.273 2.911 6.273 6.5S44.963 82 41.5 82z" fill="#AFD1B6" fill-rule="nonzero"/>
        <path d="M860.638 61h-14.277c-2.597 0-4.361-1.579-4.361-4.215 0-3.679.866-9.327 5.652-9.327.506 0 2.646 2.263 5.848 2.263s5.342-2.263 5.848-2.263c4.786 0 5.652 5.648 5.652 9.327 0 2.636-1.764 4.215-4.362 4.215zM853.5 48.5c-3.463 0-6.273-2.8-6.273-6.25S850.037 36 853.5 36c3.463 0 6.273 2.8 6.273 6.25s-2.81 6.25-6.273 6.25z" fill="#DBDBDB" fill-rule="nonzero"/>
        <path d="M18.638 129H4.361C1.764 129 0 127.358 0 124.616c0-3.826.866-9.7 5.652-9.7.506 0 2.646 2.354 5.848 2.354s5.342-2.353 5.848-2.353c4.786 0 5.652 5.873 5.652 9.699 0 2.742-1.764 4.384-4.362 4.384zM11.5 116c-3.463 0-6.273-2.911-6.273-6.5s2.81-6.5 6.273-6.5c3.463 0 6.273 2.911 6.273 6.5s-2.81 6.5-6.273 6.5z" fill="#AFD1B6" fill-rule="nonzero"/>
        <path d="M803.638 61h-14.277c-2.597 0-4.361-1.579-4.361-4.215 0-3.679.866-9.327 5.652-9.327.506 0 2.646 2.263 5.848 2.263s5.342-2.263 5.848-2.263c4.786 0 5.652 5.648 5.652 9.327 0 2.636-1.764 4.215-4.362 4.215zM796.5 48.5c-3.463 0-6.273-2.8-6.273-6.25S793.037 36 796.5 36c3.463 0 6.273 2.8 6.273 6.25s-2.81 6.25-6.273 6.25zM916.638 61h-14.277c-2.597 0-4.361-1.579-4.361-4.215 0-3.679.866-9.327 5.652-9.327.506 0 2.646 2.263 5.848 2.263s5.342-2.263 5.848-2.263c4.786 0 5.652 5.648 5.652 9.327 0 2.636-1.764 4.215-4.362 4.215zM909.5 48.5c-3.463 0-6.273-2.8-6.273-6.25S906.037 36 909.5 36c3.463 0 6.273 2.8 6.273 6.25s-2.81 6.25-6.273 6.25zM972.638 61h-14.277c-2.597 0-4.361-1.579-4.361-4.215 0-3.679.866-9.327 5.652-9.327.506 0 2.646 2.263 5.848 2.263s5.342-2.263 5.848-2.263c4.786 0 5.652 5.648 5.652 9.327 0 2.636-1.764 4.215-4.362 4.215zM965.5 48.5c-3.463 0-6.273-2.8-6.273-6.25S962.037 36 965.5 36c3.463 0 6.273 2.8 6.273 6.25s-2.81 6.25-6.273 6.25z" fill="#DBDBDB" fill-rule="nonzero"/>
        <text font-family="Futura-Medium, Futura" font-size="18" font-weight="400" fill="#82A289" transform="translate(0 .33)">
                    <tspan x="2.838" y="22.251">65+ Years 路 31% 路 n = 463</tspan>
                </text>
        <text font-family="Futura-Medium, Futura" font-size="18" font-weight="400" fill="#82A289" transform="translate(0 .33)">
                    <tspan x="700.258" y="19">65+ Years 路 25% 路 n = 463</tspan>
                </text>
        <path d="M257.638 62h-14.277c-2.597 0-4.361-1.642-4.361-4.384 0-3.826.866-9.7 5.652-9.7.506 0 2.646 2.354 5.848 2.354s5.342-2.353 5.848-2.353c4.786 0 5.652 5.873 5.652 9.699 0 2.742-1.764 4.384-4.362 4.384zM250.5 49c-3.463 0-6.273-2.911-6.273-6.5s2.81-6.5 6.273-6.5c3.463 0 6.273 2.911 6.273 6.5s-2.81 6.5-6.273 6.5zM227.638 62h-14.277c-2.597 0-4.361-1.642-4.361-4.384 0-3.826.866-9.7 5.652-9.7.506 0 2.646 2.354 5.848 2.354s5.342-2.353 5.848-2.353c4.786 0 5.652 5.873 5.652 9.699 0 2.742-1.764 4.384-4.362 4.384zM220.5 49c-3.463 0-6.273-2.911-6.273-6.5s2.81-6.5 6.273-6.5c3.463 0 6.273 2.911 6.273 6.5s-2.81 6.5-6.273 6.5zM48.638 129H34.361c-2.597 0-4.361-1.642-4.361-4.384 0-3.826.866-9.7 5.652-9.7.506 0 2.646 2.354 5.848 2.354s5.342-2.353 5.848-2.353c4.786 0 5.652 5.873 5.652 9.699 0 2.742-1.764 4.384-4.362 4.384zM41.5 116c-3.463 0-6.273-2.911-6.273-6.5s2.81-6.5 6.273-6.5c3.463 0 6.273 2.911 6.273 6.5s-2.81 6.5-6.273 6.5zM107.638 62H93.361C90.764 62 89 60.358 89 57.616c0-3.826.866-9.7 5.652-9.7.506 0 2.646 2.354 5.848 2.354s5.342-2.353 5.848-2.353c4.786 0 5.652 5.873 5.652 9.699 0 2.742-1.764 4.384-4.362 4.384zM100.5 49c-3.463 0-6.273-2.911-6.273-6.5s2.81-6.5 6.273-6.5c3.463 0 6.273 2.911 6.273 6.5s-2.81 6.5-6.273 6.5zM256.638 97h-14.277c-2.597 0-4.361-1.642-4.361-4.384 0-3.826.866-9.7 5.652-9.7.506 0 2.646 2.354 5.848 2.354s5.342-2.353 5.848-2.353c4.786 0 5.652 5.873 5.652 9.699 0 2.742-1.764 4.384-4.362 4.384zM249.5 84c-3.463 0-6.273-2.911-6.273-6.5s2.81-6.5 6.273-6.5c3.463 0 6.273 2.911 6.273 6.5s-2.81 6.5-6.273 6.5zM197.638 62h-14.277c-2.597 0-4.361-1.642-4.361-4.384 0-3.826.866-9.7 5.652-9.7.506 0 2.646 2.354 5.848 2.354s5.342-2.353 5.848-2.353c4.786 0 5.652 5.873 5.652 9.699 0 2.742-1.764 4.384-4.362 4.384zM190.5 49c-3.463 0-6.273-2.911-6.273-6.5s2.81-6.5 6.273-6.5c3.463 0 6.273 2.911 6.273 6.5s-2.81 6.5-6.273 6.5zM78.638 129H64.361c-2.597 0-4.361-1.642-4.361-4.384 0-3.826.866-9.7 5.652-9.7.506 0 2.646 2.354 5.848 2.354s5.342-2.353 5.848-2.353c4.786 0 5.652 5.873 5.652 9.699 0 2.742-1.764 4.384-4.362 4.384zM71.5 116c-3.463 0-6.273-2.911-6.273-6.5s2.81-6.5 6.273-6.5c3.463 0 6.273 2.911 6.273 6.5s-2.81 6.5-6.273 6.5zM137.638 62h-14.277c-2.597 0-4.361-1.642-4.361-4.384 0-3.826.866-9.7 5.652-9.7.506 0 2.646 2.354 5.848 2.354s5.342-2.353 5.848-2.353c4.786 0 5.652 5.873 5.652 9.699 0 2.742-1.764 4.384-4.362 4.384zM130.5 49c-3.463 0-6.273-2.911-6.273-6.5s2.81-6.5 6.273-6.5c3.463 0 6.273 2.911 6.273 6.5s-2.81 6.5-6.273 6.5zM284.638 97h-14.277c-2.597 0-4.361-1.642-4.361-4.384 0-3.826.866-9.7 5.652-9.7.506 0 2.646 2.354 5.848 2.354s5.342-2.353 5.848-2.353c4.786 0 5.652 5.873 5.652 9.699 0 2.742-1.764 4.384-4.362 4.384zM277.5 84c-3.463 0-6.273-2.911-6.273-6.5s2.81-6.5 6.273-6.5c3.463 0 6.273 2.911 6.273 6.5s-2.81 6.5-6.273 6.5zM167.638 62h-14.277c-2.597 0-4.361-1.642-4.361-4.384 0-3.826.866-9.7 5.652-9.7.506 0 2.646 2.354 5.848 2.354s5.342-2.353 5.848-2.353c4.786 0 5.652 5.873 5.652 9.699 0 2.742-1.764 4.384-4.362 4.384zM160.5 49c-3.463 0-6.273-2.911-6.273-6.5s2.81-6.5 6.273-6.5c3.463 0 6.273 2.911 6.273 6.5s-2.81 6.5-6.273 6.5zM227.638 97h-14.277c-2.597 0-4.361-1.642-4.361-4.384 0-3.826.866-9.7 5.652-9.7.506 0 2.646 2.354 5.848 2.354s5.342-2.353 5.848-2.353c4.786 0 5.652 5.873 5.652 9.699 0 2.742-1.764 4.384-4.362 4.384zM220.5 84c-3.463 0-6.273-2.911-6.273-6.5s2.81-6.5 6.273-6.5c3.463 0 6.273 2.911 6.273 6.5s-2.81 6.5-6.273 6.5zM284.638 62h-14.277c-2.597 0-4.361-1.642-4.361-4.384 0-3.826.866-9.7 5.652-9.7.506 0 2.646 2.354 5.848 2.354s5.342-2.353 5.848-2.353c4.786 0 5.652 5.873 5.652 9.699 0 2.742-1.764 4.384-4.362 4.384zM277.5 49c-3.463 0-6.273-2.911-6.273-6.5s2.81-6.5 6.273-6.5c3.463 0 6.273 2.911 6.273 6.5s-2.81 6.5-6.273 6.5zM107.638 95H93.361C90.764 95 89 93.358 89 90.616c0-3.826.866-9.7 5.652-9.7.506 0 2.646 2.354 5.848 2.354s5.342-2.353 5.848-2.353c4.786 0 5.652 5.873 5.652 9.699 0 2.742-1.764 4.384-4.362 4.384zM100.5 82c-3.463 0-6.273-2.911-6.273-6.5s2.81-6.5 6.273-6.5c3.463 0 6.273 2.911 6.273 6.5s-2.81 6.5-6.273 6.5zM197.638 95h-14.277c-2.597 0-4.361-1.642-4.361-4.384 0-3.826.866-9.7 5.652-9.7.506 0 2.646 2.354 5.848 2.354s5.342-2.353 5.848-2.353c4.786 0 5.652 5.873 5.652 9.699 0 2.742-1.764 4.384-4.362 4.384zM190.5 82c-3.463 0-6.273-2.911-6.273-6.5s2.81-6.5 6.273-6.5c3.463 0 6.273 2.911 6.273 6.5s-2.81 6.5-6.273 6.5zM137.638 95h-14.277c-2.597 0-4.361-1.642-4.361-4.384 0-3.826.866-9.7 5.652-9.7.506 0 2.646 2.354 5.848 2.354s5.342-2.353 5.848-2.353c4.786 0 5.652 5.873 5.652 9.699 0 2.742-1.764 4.384-4.362 4.384zM130.5 82c-3.463 0-6.273-2.911-6.273-6.5s2.81-6.5 6.273-6.5c3.463 0 6.273 2.911 6.273 6.5s-2.81 6.5-6.273 6.5zM167.638 95h-14.277c-2.597 0-4.361-1.642-4.361-4.384 0-3.826.866-9.7 5.652-9.7.506 0 2.646 2.354 5.848 2.354s5.342-2.353 5.848-2.353c4.786 0 5.652 5.873 5.652 9.699 0 2.742-1.764 4.384-4.362 4.384zM160.5 82c-3.463 0-6.273-2.911-6.273-6.5s2.81-6.5 6.273-6.5c3.463 0 6.273 2.911 6.273 6.5s-2.81 6.5-6.273 6.5z" fill="#DBDBDB" fill-rule="nonzero"/>
    </g>
</svg>
