<svg width="998" height="115" viewBox="0 0 998 115" xmlns="http://www.w3.org/2000/svg">
    <g fill="none" fill-rule="evenodd">
        <path d="M19.638 83H5.361C2.764 83 1 81.358 1 78.616c0-3.826.866-9.7 5.652-9.7.506 0 2.646 2.354 5.848 2.354s5.342-2.353 5.848-2.353c4.786 0 5.652 5.873 5.652 9.699C24 81.358 22.236 83 19.638 83zM12.5 70c-3.463 0-6.273-2.911-6.273-6.5S9.037 57 12.5 57c3.463 0 6.273 2.911 6.273 6.5S15.963 70 12.5 70z" fill="#3C6E71" fill-rule="nonzero"/>
        <g fill-rule="nonzero">
            <path d="M720.638 82h-14.277c-2.597 0-4.361-1.579-4.361-4.215 0-3.679.866-9.327 5.652-9.327.506 0 2.646 2.263 5.848 2.263s5.342-2.263 5.848-2.263c4.786 0 5.652 5.648 5.652 9.327 0 2.636-1.764 4.215-4.362 4.215zM713.5 69.5c-3.463 0-6.273-2.8-6.273-6.25S710.037 57 713.5 57c3.463 0 6.273 2.8 6.273 6.25s-2.81 6.25-6.273 6.25z" fill="#3C6E71"/>
            <path d="M806.638 113h-14.277c-2.597 0-4.361-1.579-4.361-4.215 0-3.679.866-9.327 5.652-9.327.506 0 2.646 2.263 5.848 2.263s5.342-2.263 5.848-2.263c4.786 0 5.652 5.648 5.652 9.327 0 2.636-1.764 4.215-4.362 4.215zm-7.138-12.5c-3.463 0-6.273-2.8-6.273-6.25S796.037 88 799.5 88c3.463 0 6.273 2.8 6.273 6.25s-2.81 6.25-6.273 6.25zM890.638 113h-14.277c-2.597 0-4.361-1.579-4.361-4.215 0-3.679.866-9.327 5.652-9.327.506 0 2.646 2.263 5.848 2.263s5.342-2.263 5.848-2.263c4.786 0 5.652 5.648 5.652 9.327 0 2.636-1.764 4.215-4.362 4.215zm-7.138-12.5c-3.463 0-6.273-2.8-6.273-6.25S880.037 88 883.5 88c3.463 0 6.273 2.8 6.273 6.25s-2.81 6.25-6.273 6.25zM975.638 113h-14.277c-2.597 0-4.361-1.579-4.361-4.215 0-3.679.866-9.327 5.652-9.327.506 0 2.646 2.263 5.848 2.263s5.342-2.263 5.848-2.263c4.786 0 5.652 5.648 5.652 9.327 0 2.636-1.764 4.215-4.362 4.215zm-7.138-12.5c-3.463 0-6.273-2.8-6.273-6.25S965.037 88 968.5 88c3.463 0 6.273 2.8 6.273 6.25s-2.81 6.25-6.273 6.25zM833.638 113h-14.277c-2.597 0-4.361-1.579-4.361-4.215 0-3.679.866-9.327 5.652-9.327.506 0 2.646 2.263 5.848 2.263s5.342-2.263 5.848-2.263c4.786 0 5.652 5.648 5.652 9.327 0 2.636-1.764 4.215-4.362 4.215zm-7.138-12.5c-3.463 0-6.273-2.8-6.273-6.25S823.037 88 826.5 88c3.463 0 6.273 2.8 6.273 6.25s-2.81 6.25-6.273 6.25zM917.638 113h-14.277c-2.597 0-4.361-1.579-4.361-4.215 0-3.679.866-9.327 5.652-9.327.506 0 2.646 2.263 5.848 2.263s5.342-2.263 5.848-2.263c4.786 0 5.652 5.648 5.652 9.327 0 2.636-1.764 4.215-4.362 4.215zm-7.138-12.5c-3.463 0-6.273-2.8-6.273-6.25S907.037 88 910.5 88c3.463 0 6.273 2.8 6.273 6.25s-2.81 6.25-6.273 6.25zM919.638 82h-14.277c-2.597 0-4.361-1.579-4.361-4.215 0-3.679.866-9.327 5.652-9.327.506 0 2.646 2.263 5.848 2.263s5.342-2.263 5.848-2.263c4.786 0 5.652 5.648 5.652 9.327 0 2.636-1.764 4.215-4.362 4.215zM912.5 69.5c-3.463 0-6.273-2.8-6.273-6.25S909.037 57 912.5 57c3.463 0 6.273 2.8 6.273 6.25s-2.81 6.25-6.273 6.25zM862.638 113h-14.277c-2.597 0-4.361-1.579-4.361-4.215 0-3.679.866-9.327 5.652-9.327.506 0 2.646 2.263 5.848 2.263s5.342-2.263 5.848-2.263c4.786 0 5.652 5.648 5.652 9.327 0 2.636-1.764 4.215-4.362 4.215zm-7.138-12.5c-3.463 0-6.273-2.8-6.273-6.25S852.037 88 855.5 88c3.463 0 6.273 2.8 6.273 6.25s-2.81 6.25-6.273 6.25zM947.638 113h-14.277c-2.597 0-4.361-1.579-4.361-4.215 0-3.679.866-9.327 5.652-9.327.506 0 2.646 2.263 5.848 2.263s5.342-2.263 5.848-2.263c4.786 0 5.652 5.648 5.652 9.327 0 2.636-1.764 4.215-4.362 4.215zm-7.138-12.5c-3.463 0-6.273-2.8-6.273-6.25S937.037 88 940.5 88c3.463 0 6.273 2.8 6.273 6.25s-2.81 6.25-6.273 6.25zM947.638 82h-14.277c-2.597 0-4.361-1.579-4.361-4.215 0-3.679.866-9.327 5.652-9.327.506 0 2.646 2.263 5.848 2.263s5.342-2.263 5.848-2.263c4.786 0 5.652 5.648 5.652 9.327 0 2.636-1.764 4.215-4.362 4.215zM940.5 69.5c-3.463 0-6.273-2.8-6.273-6.25S937.037 57 940.5 57c3.463 0 6.273 2.8 6.273 6.25s-2.81 6.25-6.273 6.25zM975.638 82h-14.277c-2.597 0-4.361-1.579-4.361-4.215 0-3.679.866-9.327 5.652-9.327.506 0 2.646 2.263 5.848 2.263s5.342-2.263 5.848-2.263c4.786 0 5.652 5.648 5.652 9.327 0 2.636-1.764 4.215-4.362 4.215zM968.5 69.5c-3.463 0-6.273-2.8-6.273-6.25S965.037 57 968.5 57c3.463 0 6.273 2.8 6.273 6.25s-2.81 6.25-6.273 6.25z" fill="#DBDBDB"/>
            <path d="M747.638 113h-14.277c-2.597 0-4.361-1.579-4.361-4.215 0-3.679.866-9.327 5.652-9.327.506 0 2.646 2.263 5.848 2.263s5.342-2.263 5.848-2.263c4.786 0 5.652 5.648 5.652 9.327 0 2.636-1.764 4.215-4.362 4.215zm-7.138-12.5c-3.463 0-6.273-2.8-6.273-6.25S737.037 88 740.5 88c3.463 0 6.273 2.8 6.273 6.25s-2.81 6.25-6.273 6.25zM777.638 82h-14.277c-2.597 0-4.361-1.579-4.361-4.215 0-3.679.866-9.327 5.652-9.327.506 0 2.646 2.263 5.848 2.263s5.342-2.263 5.848-2.263c4.786 0 5.652 5.648 5.652 9.327 0 2.636-1.764 4.215-4.362 4.215zM770.5 69.5c-3.463 0-6.273-2.8-6.273-6.25S767.037 57 770.5 57c3.463 0 6.273 2.8 6.273 6.25s-2.81 6.25-6.273 6.25z" fill="#3C6E71"/>
            <path d="M806.638 82h-14.277c-2.597 0-4.361-1.579-4.361-4.215 0-3.679.866-9.327 5.652-9.327.506 0 2.646 2.263 5.848 2.263s5.342-2.263 5.848-2.263c4.786 0 5.652 5.648 5.652 9.327 0 2.636-1.764 4.215-4.362 4.215zM799.5 69.5c-3.463 0-6.273-2.8-6.273-6.25S796.037 57 799.5 57c3.463 0 6.273 2.8 6.273 6.25s-2.81 6.25-6.273 6.25zM863.638 82h-14.277c-2.597 0-4.361-1.579-4.361-4.215 0-3.679.866-9.327 5.652-9.327.506 0 2.646 2.263 5.848 2.263s5.342-2.263 5.848-2.263c4.786 0 5.652 5.648 5.652 9.327 0 2.636-1.764 4.215-4.362 4.215zM856.5 69.5c-3.463 0-6.273-2.8-6.273-6.25S853.037 57 856.5 57c3.463 0 6.273 2.8 6.273 6.25s-2.81 6.25-6.273 6.25z" fill="#DBDBDB"/>
            <path d="M748.638 82h-14.277c-2.597 0-4.361-1.579-4.361-4.215 0-3.679.866-9.327 5.652-9.327.506 0 2.646 2.263 5.848 2.263s5.342-2.263 5.848-2.263c4.786 0 5.652 5.648 5.652 9.327 0 2.636-1.764 4.215-4.362 4.215zM741.5 69.5c-3.463 0-6.273-2.8-6.273-6.25S738.037 57 741.5 57c3.463 0 6.273 2.8 6.273 6.25s-2.81 6.25-6.273 6.25zM777.638 113h-14.277c-2.597 0-4.361-1.579-4.361-4.215 0-3.679.866-9.327 5.652-9.327.506 0 2.646 2.263 5.848 2.263s5.342-2.263 5.848-2.263c4.786 0 5.652 5.648 5.652 9.327 0 2.636-1.764 4.215-4.362 4.215zm-7.138-12.5c-3.463 0-6.273-2.8-6.273-6.25S767.037 88 770.5 88c3.463 0 6.273 2.8 6.273 6.25s-2.81 6.25-6.273 6.25zM719.638 113h-14.277c-2.597 0-4.361-1.579-4.361-4.215 0-3.679.866-9.327 5.652-9.327.506 0 2.646 2.263 5.848 2.263s5.342-2.263 5.848-2.263c4.786 0 5.652 5.648 5.652 9.327 0 2.636-1.764 4.215-4.362 4.215zm-7.138-12.5c-3.463 0-6.273-2.8-6.273-6.25S709.037 88 712.5 88c3.463 0 6.273 2.8 6.273 6.25s-2.81 6.25-6.273 6.25z" fill="#3C6E71"/>
            <path d="M835.638 82h-14.277c-2.597 0-4.361-1.579-4.361-4.215 0-3.679.866-9.327 5.652-9.327.506 0 2.646 2.263 5.848 2.263s5.342-2.263 5.848-2.263c4.786 0 5.652 5.648 5.652 9.327 0 2.636-1.764 4.215-4.362 4.215zM828.5 69.5c-3.463 0-6.273-2.8-6.273-6.25S825.037 57 828.5 57c3.463 0 6.273 2.8 6.273 6.25s-2.81 6.25-6.273 6.25zM890.638 82h-14.277c-2.597 0-4.361-1.579-4.361-4.215 0-3.679.866-9.327 5.652-9.327.506 0 2.646 2.263 5.848 2.263s5.342-2.263 5.848-2.263c4.786 0 5.652 5.648 5.652 9.327 0 2.636-1.764 4.215-4.362 4.215zM883.5 69.5c-3.463 0-6.273-2.8-6.273-6.25S880.037 57 883.5 57c3.463 0 6.273 2.8 6.273 6.25s-2.81 6.25-6.273 6.25z" fill="#DBDBDB"/>
        </g>
        <path d="M19.638 115H5.361C2.764 115 1 113.358 1 110.616c0-3.826.866-9.7 5.652-9.7.506 0 2.646 2.354 5.848 2.354s5.342-2.353 5.848-2.353c4.786 0 5.652 5.873 5.652 9.699 0 2.742-1.764 4.384-4.362 4.384zM12.5 102c-3.463 0-6.273-2.911-6.273-6.5S9.037 89 12.5 89c3.463 0 6.273 2.911 6.273 6.5s-2.81 6.5-6.273 6.5zM79.638 83H65.361C62.764 83 61 81.358 61 78.616c0-3.826.866-9.7 5.652-9.7.506 0 2.646 2.354 5.848 2.354s5.342-2.353 5.848-2.353c4.786 0 5.652 5.873 5.652 9.699C84 81.358 82.236 83 79.638 83zM72.5 70c-3.463 0-6.273-2.911-6.273-6.5S69.037 57 72.5 57c3.463 0 6.273 2.911 6.273 6.5S75.963 70 72.5 70zM79.638 115H65.361c-2.597 0-4.361-1.642-4.361-4.384 0-3.826.866-9.7 5.652-9.7.506 0 2.646 2.354 5.848 2.354s5.342-2.353 5.848-2.353c4.786 0 5.652 5.873 5.652 9.699 0 2.742-1.764 4.384-4.362 4.384zM72.5 102c-3.463 0-6.273-2.911-6.273-6.5S69.037 89 72.5 89c3.463 0 6.273 2.911 6.273 6.5s-2.81 6.5-6.273 6.5zM49.638 83H35.361C32.764 83 31 81.358 31 78.616c0-3.826.866-9.7 5.652-9.7.506 0 2.646 2.354 5.848 2.354s5.342-2.353 5.848-2.353c4.786 0 5.652 5.873 5.652 9.699C54 81.358 52.236 83 49.638 83zM42.5 70c-3.463 0-6.273-2.911-6.273-6.5S39.037 57 42.5 57c3.463 0 6.273 2.911 6.273 6.5S45.963 70 42.5 70zM49.638 115H35.361c-2.597 0-4.361-1.642-4.361-4.384 0-3.826.866-9.7 5.652-9.7.506 0 2.646 2.354 5.848 2.354s5.342-2.353 5.848-2.353c4.786 0 5.652 5.873 5.652 9.699 0 2.742-1.764 4.384-4.362 4.384zM42.5 102c-3.463 0-6.273-2.911-6.273-6.5S39.037 89 42.5 89c3.463 0 6.273 2.911 6.273 6.5s-2.81 6.5-6.273 6.5zM109.638 83H95.361C92.764 83 91 81.358 91 78.616c0-3.826.866-9.7 5.652-9.7.506 0 2.646 2.354 5.848 2.354s5.342-2.353 5.848-2.353c4.786 0 5.652 5.873 5.652 9.699 0 2.742-1.764 4.384-4.362 4.384zM102.5 70c-3.463 0-6.273-2.911-6.273-6.5s2.81-6.5 6.273-6.5c3.463 0 6.273 2.911 6.273 6.5s-2.81 6.5-6.273 6.5zM109.638 115H95.361c-2.597 0-4.361-1.642-4.361-4.384 0-3.826.866-9.7 5.652-9.7.506 0 2.646 2.354 5.848 2.354s5.342-2.353 5.848-2.353c4.786 0 5.652 5.873 5.652 9.699 0 2.742-1.764 4.384-4.362 4.384zm-7.138-13c-3.463 0-6.273-2.911-6.273-6.5s2.81-6.5 6.273-6.5c3.463 0 6.273 2.911 6.273 6.5s-2.81 6.5-6.273 6.5z" fill="#3C6E71" fill-rule="nonzero"/>
        <text font-family="Futura-Medium, Futura" font-size="18" font-weight="400" fill="#3C6E71" transform="translate(.718 .444)">
                    <tspan x="0" y="19">37% of people aged </tspan>
                    <tspan x="0" y="43">under 35 own a cat (n = 424).</tspan>
                </text>
        <text font-family="Futura-Medium, Futura" font-size="18" font-weight="400" fill="#3C6E71" transform="translate(.718 .444)">
                    <tspan x="700.484" y="37.827">Under 35 Years · 31% · n = 424</tspan>
                </text>
        <path d="M200.638 83h-14.277c-2.597 0-4.361-1.642-4.361-4.384 0-3.826.866-9.7 5.652-9.7.506 0 2.646 2.354 5.848 2.354s5.342-2.353 5.848-2.353c4.786 0 5.652 5.873 5.652 9.699 0 2.742-1.764 4.384-4.362 4.384zM193.5 70c-3.463 0-6.273-2.911-6.273-6.5s2.81-6.5 6.273-6.5c3.463 0 6.273 2.911 6.273 6.5s-2.81 6.5-6.273 6.5zM200.638 115h-14.277c-2.597 0-4.361-1.642-4.361-4.384 0-3.826.866-9.7 5.652-9.7.506 0 2.646 2.354 5.848 2.354s5.342-2.353 5.848-2.353c4.786 0 5.652 5.873 5.652 9.699 0 2.742-1.764 4.384-4.362 4.384zm-7.138-13c-3.463 0-6.273-2.911-6.273-6.5s2.81-6.5 6.273-6.5c3.463 0 6.273 2.911 6.273 6.5s-2.81 6.5-6.273 6.5zM139.638 83h-14.277c-2.597 0-4.361-1.642-4.361-4.384 0-3.826.866-9.7 5.652-9.7.506 0 2.646 2.354 5.848 2.354s5.342-2.353 5.848-2.353c4.786 0 5.652 5.873 5.652 9.699 0 2.742-1.764 4.384-4.362 4.384zM132.5 70c-3.463 0-6.273-2.911-6.273-6.5s2.81-6.5 6.273-6.5c3.463 0 6.273 2.911 6.273 6.5s-2.81 6.5-6.273 6.5zM139.638 115h-14.277c-2.597 0-4.361-1.642-4.361-4.384 0-3.826.866-9.7 5.652-9.7.506 0 2.646 2.354 5.848 2.354s5.342-2.353 5.848-2.353c4.786 0 5.652 5.873 5.652 9.699 0 2.742-1.764 4.384-4.362 4.384zm-7.138-13c-3.463 0-6.273-2.911-6.273-6.5s2.81-6.5 6.273-6.5c3.463 0 6.273 2.911 6.273 6.5s-2.81 6.5-6.273 6.5zM229.638 83h-14.277c-2.597 0-4.361-1.642-4.361-4.384 0-3.826.866-9.7 5.652-9.7.506 0 2.646 2.354 5.848 2.354s5.342-2.353 5.848-2.353c4.786 0 5.652 5.873 5.652 9.699 0 2.742-1.764 4.384-4.362 4.384zM222.5 70c-3.463 0-6.273-2.911-6.273-6.5s2.81-6.5 6.273-6.5c3.463 0 6.273 2.911 6.273 6.5s-2.81 6.5-6.273 6.5zM229.638 115h-14.277c-2.597 0-4.361-1.642-4.361-4.384 0-3.826.866-9.7 5.652-9.7.506 0 2.646 2.354 5.848 2.354s5.342-2.353 5.848-2.353c4.786 0 5.652 5.873 5.652 9.699 0 2.742-1.764 4.384-4.362 4.384zm-7.138-13c-3.463 0-6.273-2.911-6.273-6.5s2.81-6.5 6.273-6.5c3.463 0 6.273 2.911 6.273 6.5s-2.81 6.5-6.273 6.5zM170.638 83h-14.277c-2.597 0-4.361-1.642-4.361-4.384 0-3.826.866-9.7 5.652-9.7.506 0 2.646 2.354 5.848 2.354s5.342-2.353 5.848-2.353c4.786 0 5.652 5.873 5.652 9.699 0 2.742-1.764 4.384-4.362 4.384zM163.5 70c-3.463 0-6.273-2.911-6.273-6.5s2.81-6.5 6.273-6.5c3.463 0 6.273 2.911 6.273 6.5s-2.81 6.5-6.273 6.5zM170.638 115h-14.277c-2.597 0-4.361-1.642-4.361-4.384 0-3.826.866-9.7 5.652-9.7.506 0 2.646 2.354 5.848 2.354s5.342-2.353 5.848-2.353c4.786 0 5.652 5.873 5.652 9.699 0 2.742-1.764 4.384-4.362 4.384zm-7.138-13c-3.463 0-6.273-2.911-6.273-6.5s2.81-6.5 6.273-6.5c3.463 0 6.273 2.911 6.273 6.5s-2.81 6.5-6.273 6.5zM258.638 83h-14.277c-2.597 0-4.361-1.642-4.361-4.384 0-3.826.866-9.7 5.652-9.7.506 0 2.646 2.354 5.848 2.354s5.342-2.353 5.848-2.353c4.786 0 5.652 5.873 5.652 9.699 0 2.742-1.764 4.384-4.362 4.384zM251.5 70c-3.463 0-6.273-2.911-6.273-6.5s2.81-6.5 6.273-6.5c3.463 0 6.273 2.911 6.273 6.5s-2.81 6.5-6.273 6.5zM258.638 115h-14.277c-2.597 0-4.361-1.642-4.361-4.384 0-3.826.866-9.7 5.652-9.7.506 0 2.646 2.354 5.848 2.354s5.342-2.353 5.848-2.353c4.786 0 5.652 5.873 5.652 9.699 0 2.742-1.764 4.384-4.362 4.384zm-7.138-13c-3.463 0-6.273-2.911-6.273-6.5s2.81-6.5 6.273-6.5c3.463 0 6.273 2.911 6.273 6.5s-2.81 6.5-6.273 6.5zM287.638 83h-14.277c-2.597 0-4.361-1.642-4.361-4.384 0-3.826.866-9.7 5.652-9.7.506 0 2.646 2.354 5.848 2.354s5.342-2.353 5.848-2.353c4.786 0 5.652 5.873 5.652 9.699 0 2.742-1.764 4.384-4.362 4.384zM280.5 70c-3.463 0-6.273-2.911-6.273-6.5s2.81-6.5 6.273-6.5c3.463 0 6.273 2.911 6.273 6.5s-2.81 6.5-6.273 6.5zM287.638 115h-14.277c-2.597 0-4.361-1.642-4.361-4.384 0-3.826.866-9.7 5.652-9.7.506 0 2.646 2.354 5.848 2.354s5.342-2.353 5.848-2.353c4.786 0 5.652 5.873 5.652 9.699 0 2.742-1.764 4.384-4.362 4.384zm-7.138-13c-3.463 0-6.273-2.911-6.273-6.5s2.81-6.5 6.273-6.5c3.463 0 6.273 2.911 6.273 6.5s-2.81 6.5-6.273 6.5z" fill="#DBDBDB" fill-rule="nonzero"/>
    </g>
</svg>
