<svg width="980" height="95" viewBox="0 0 980 95" xmlns="http://www.w3.org/2000/svg">
    <g fill="none" fill-rule="evenodd">
        <path d="M721.638 94h-14.277c-2.597 0-4.361-1.579-4.361-4.215 0-3.679.866-9.327 5.652-9.327.506 0 2.646 2.263 5.848 2.263s5.342-2.263 5.848-2.263c4.786 0 5.652 5.648 5.652 9.327 0 2.636-1.764 4.215-4.362 4.215zM714.5 81.5c-3.463 0-6.273-2.8-6.273-6.25S711.037 69 714.5 69c3.463 0 6.273 2.8 6.273 6.25s-2.81 6.25-6.273 6.25z" fill="#E8D3A9" fill-rule="nonzero"/>
        <path d="M806.638 94h-14.277c-2.597 0-4.361-1.579-4.361-4.215 0-3.679.866-9.327 5.652-9.327.506 0 2.646 2.263 5.848 2.263s5.342-2.263 5.848-2.263c4.786 0 5.652 5.648 5.652 9.327 0 2.636-1.764 4.215-4.362 4.215zM799.5 81.5c-3.463 0-6.273-2.8-6.273-6.25S796.037 69 799.5 69c3.463 0 6.273 2.8 6.273 6.25s-2.81 6.25-6.273 6.25zM890.638 94h-14.277c-2.597 0-4.361-1.579-4.361-4.215 0-3.679.866-9.327 5.652-9.327.506 0 2.646 2.263 5.848 2.263s5.342-2.263 5.848-2.263c4.786 0 5.652 5.648 5.652 9.327 0 2.636-1.764 4.215-4.362 4.215zM883.5 81.5c-3.463 0-6.273-2.8-6.273-6.25S880.037 69 883.5 69c3.463 0 6.273 2.8 6.273 6.25s-2.81 6.25-6.273 6.25z" fill="#DBDBDB" fill-rule="nonzero"/>
        <path d="M749.638 94h-14.277c-2.597 0-4.361-1.579-4.361-4.215 0-3.679.866-9.327 5.652-9.327.506 0 2.646 2.263 5.848 2.263s5.342-2.263 5.848-2.263c4.786 0 5.652 5.648 5.652 9.327 0 2.636-1.764 4.215-4.362 4.215zM742.5 81.5c-3.463 0-6.273-2.8-6.273-6.25S739.037 69 742.5 69c3.463 0 6.273 2.8 6.273 6.25s-2.81 6.25-6.273 6.25z" fill="#E8D3A9" fill-rule="nonzero"/>
        <path d="M834.638 94h-14.277c-2.597 0-4.361-1.579-4.361-4.215 0-3.679.866-9.327 5.652-9.327.506 0 2.646 2.263 5.848 2.263s5.342-2.263 5.848-2.263c4.786 0 5.652 5.648 5.652 9.327 0 2.636-1.764 4.215-4.362 4.215zM827.5 81.5c-3.463 0-6.273-2.8-6.273-6.25S824.037 69 827.5 69c3.463 0 6.273 2.8 6.273 6.25s-2.81 6.25-6.273 6.25zM919.638 94h-14.277c-2.597 0-4.361-1.579-4.361-4.215 0-3.679.866-9.327 5.652-9.327.506 0 2.646 2.263 5.848 2.263s5.342-2.263 5.848-2.263c4.786 0 5.652 5.648 5.652 9.327 0 2.636-1.764 4.215-4.362 4.215zM912.5 81.5c-3.463 0-6.273-2.8-6.273-6.25S909.037 69 912.5 69c3.463 0 6.273 2.8 6.273 6.25s-2.81 6.25-6.273 6.25z" fill="#DBDBDB" fill-rule="nonzero"/>
        <path d="M778.638 94h-14.277c-2.597 0-4.361-1.579-4.361-4.215 0-3.679.866-9.327 5.652-9.327.506 0 2.646 2.263 5.848 2.263s5.342-2.263 5.848-2.263c4.786 0 5.652 5.648 5.652 9.327 0 2.636-1.764 4.215-4.362 4.215zM771.5 81.5c-3.463 0-6.273-2.8-6.273-6.25S768.037 69 771.5 69c3.463 0 6.273 2.8 6.273 6.25s-2.81 6.25-6.273 6.25z" fill="#E8D3A9" fill-rule="nonzero"/>
        <path d="M863.638 94h-14.277c-2.597 0-4.361-1.579-4.361-4.215 0-3.679.866-9.327 5.652-9.327.506 0 2.646 2.263 5.848 2.263s5.342-2.263 5.848-2.263c4.786 0 5.652 5.648 5.652 9.327 0 2.636-1.764 4.215-4.362 4.215zM856.5 81.5c-3.463 0-6.273-2.8-6.273-6.25S853.037 69 856.5 69c3.463 0 6.273 2.8 6.273 6.25s-2.81 6.25-6.273 6.25zM947.638 94h-14.277c-2.597 0-4.361-1.579-4.361-4.215 0-3.679.866-9.327 5.652-9.327.506 0 2.646 2.263 5.848 2.263s5.342-2.263 5.848-2.263c4.786 0 5.652 5.648 5.652 9.327 0 2.636-1.764 4.215-4.362 4.215zM940.5 81.5c-3.463 0-6.273-2.8-6.273-6.25S937.037 69 940.5 69c3.463 0 6.273 2.8 6.273 6.25s-2.81 6.25-6.273 6.25zM975.638 94h-14.277c-2.597 0-4.361-1.579-4.361-4.215 0-3.679.866-9.327 5.652-9.327.506 0 2.646 2.263 5.848 2.263s5.342-2.263 5.848-2.263c4.786 0 5.652 5.648 5.652 9.327 0 2.636-1.764 4.215-4.362 4.215zM968.5 81.5c-3.463 0-6.273-2.8-6.273-6.25S965.037 69 968.5 69c3.463 0 6.273 2.8 6.273 6.25s-2.81 6.25-6.273 6.25z" fill="#DBDBDB" fill-rule="nonzero"/>
        <path d="M18.638 61H4.361C1.764 61 0 59.358 0 56.616c0-3.826.866-9.7 5.652-9.7.506 0 2.646 2.354 5.848 2.354s5.342-2.353 5.848-2.353c4.786 0 5.652 5.873 5.652 9.699C23 59.358 21.236 61 18.638 61zM11.5 48c-3.463 0-6.273-2.911-6.273-6.5S8.037 35 11.5 35c3.463 0 6.273 2.911 6.273 6.5S14.963 48 11.5 48zM721.638 60h-14.277c-2.597 0-4.361-1.579-4.361-4.215 0-3.679.866-9.327 5.652-9.327.506 0 2.646 2.263 5.848 2.263s5.342-2.263 5.848-2.263c4.786 0 5.652 5.648 5.652 9.327 0 2.636-1.764 4.215-4.362 4.215zM714.5 47.5c-3.463 0-6.273-2.8-6.273-6.25S711.037 35 714.5 35c3.463 0 6.273 2.8 6.273 6.25s-2.81 6.25-6.273 6.25zM197.638 61h-14.277c-2.597 0-4.361-1.642-4.361-4.384 0-3.826.866-9.7 5.652-9.7.506 0 2.646 2.354 5.848 2.354s5.342-2.353 5.848-2.353c4.786 0 5.652 5.873 5.652 9.699 0 2.742-1.764 4.384-4.362 4.384zM190.5 48c-3.463 0-6.273-2.911-6.273-6.5s2.81-6.5 6.273-6.5c3.463 0 6.273 2.911 6.273 6.5s-2.81 6.5-6.273 6.5zM18.638 94H4.361C1.764 94 0 92.358 0 89.616c0-3.826.866-9.7 5.652-9.7.506 0 2.646 2.354 5.848 2.354s5.342-2.353 5.848-2.353c4.786 0 5.652 5.873 5.652 9.699C23 92.358 21.236 94 18.638 94zM11.5 81c-3.463 0-6.273-2.911-6.273-6.5S8.037 68 11.5 68c3.463 0 6.273 2.911 6.273 6.5S14.963 81 11.5 81z" fill="#E8D3A9" fill-rule="nonzero"/>
        <path d="M834.638 60h-14.277c-2.597 0-4.361-1.579-4.361-4.215 0-3.679.866-9.327 5.652-9.327.506 0 2.646 2.263 5.848 2.263s5.342-2.263 5.848-2.263c4.786 0 5.652 5.648 5.652 9.327 0 2.636-1.764 4.215-4.362 4.215zM827.5 47.5c-3.463 0-6.273-2.8-6.273-6.25S824.037 35 827.5 35c3.463 0 6.273 2.8 6.273 6.25s-2.81 6.25-6.273 6.25z" fill="#DBDBDB" fill-rule="nonzero"/>
        <path d="M78.638 61H64.361C61.764 61 60 59.358 60 56.616c0-3.826.866-9.7 5.652-9.7.506 0 2.646 2.354 5.848 2.354s5.342-2.353 5.848-2.353c4.786 0 5.652 5.873 5.652 9.699C83 59.358 81.236 61 78.638 61zM71.5 48c-3.463 0-6.273-2.911-6.273-6.5S68.037 35 71.5 35c3.463 0 6.273 2.911 6.273 6.5S74.963 48 71.5 48zM778.638 60h-14.277c-2.597 0-4.361-1.579-4.361-4.215 0-3.679.866-9.327 5.652-9.327.506 0 2.646 2.263 5.848 2.263s5.342-2.263 5.848-2.263c4.786 0 5.652 5.648 5.652 9.327 0 2.636-1.764 4.215-4.362 4.215zM771.5 47.5c-3.463 0-6.273-2.8-6.273-6.25S768.037 35 771.5 35c3.463 0 6.273 2.8 6.273 6.25s-2.81 6.25-6.273 6.25zM78.638 94H64.361C61.764 94 60 92.358 60 89.616c0-3.826.866-9.7 5.652-9.7.506 0 2.646 2.354 5.848 2.354s5.342-2.353 5.848-2.353c4.786 0 5.652 5.873 5.652 9.699C83 92.358 81.236 94 78.638 94zM71.5 81c-3.463 0-6.273-2.911-6.273-6.5S68.037 68 71.5 68c3.463 0 6.273 2.911 6.273 6.5S74.963 81 71.5 81z" fill="#E8D3A9" fill-rule="nonzero"/>
        <path d="M890.638 60h-14.277c-2.597 0-4.361-1.579-4.361-4.215 0-3.679.866-9.327 5.652-9.327.506 0 2.646 2.263 5.848 2.263s5.342-2.263 5.848-2.263c4.786 0 5.652 5.648 5.652 9.327 0 2.636-1.764 4.215-4.362 4.215zM883.5 47.5c-3.463 0-6.273-2.8-6.273-6.25S880.037 35 883.5 35c3.463 0 6.273 2.8 6.273 6.25s-2.81 6.25-6.273 6.25z" fill="#DBDBDB" fill-rule="nonzero"/>
        <path d="M137.638 61h-14.277c-2.597 0-4.361-1.642-4.361-4.384 0-3.826.866-9.7 5.652-9.7.506 0 2.646 2.354 5.848 2.354s5.342-2.353 5.848-2.353c4.786 0 5.652 5.873 5.652 9.699 0 2.742-1.764 4.384-4.362 4.384zM130.5 48c-3.463 0-6.273-2.911-6.273-6.5s2.81-6.5 6.273-6.5c3.463 0 6.273 2.911 6.273 6.5s-2.81 6.5-6.273 6.5z" fill="#E8D3A9" fill-rule="nonzero"/>
        <path d="M947.638 60h-14.277c-2.597 0-4.361-1.579-4.361-4.215 0-3.679.866-9.327 5.652-9.327.506 0 2.646 2.263 5.848 2.263s5.342-2.263 5.848-2.263c4.786 0 5.652 5.648 5.652 9.327 0 2.636-1.764 4.215-4.362 4.215zM940.5 47.5c-3.463 0-6.273-2.8-6.273-6.25S937.037 35 940.5 35c3.463 0 6.273 2.8 6.273 6.25s-2.81 6.25-6.273 6.25z" fill="#DBDBDB" fill-rule="nonzero"/>
        <path d="M48.638 61H34.361C31.764 61 30 59.358 30 56.616c0-3.826.866-9.7 5.652-9.7.506 0 2.646 2.354 5.848 2.354s5.342-2.353 5.848-2.353c4.786 0 5.652 5.873 5.652 9.699C53 59.358 51.236 61 48.638 61zM41.5 48c-3.463 0-6.273-2.911-6.273-6.5S38.037 35 41.5 35c3.463 0 6.273 2.911 6.273 6.5S44.963 48 41.5 48zM749.638 60h-14.277c-2.597 0-4.361-1.579-4.361-4.215 0-3.679.866-9.327 5.652-9.327.506 0 2.646 2.263 5.848 2.263s5.342-2.263 5.848-2.263c4.786 0 5.652 5.648 5.652 9.327 0 2.636-1.764 4.215-4.362 4.215zM742.5 47.5c-3.463 0-6.273-2.8-6.273-6.25S739.037 35 742.5 35c3.463 0 6.273 2.8 6.273 6.25s-2.81 6.25-6.273 6.25zM48.638 94H34.361C31.764 94 30 92.358 30 89.616c0-3.826.866-9.7 5.652-9.7.506 0 2.646 2.354 5.848 2.354s5.342-2.353 5.848-2.353c4.786 0 5.652 5.873 5.652 9.699C53 92.358 51.236 94 48.638 94zM41.5 81c-3.463 0-6.273-2.911-6.273-6.5S38.037 68 41.5 68c3.463 0 6.273 2.911 6.273 6.5S44.963 81 41.5 81z" fill="#E8D3A9" fill-rule="nonzero"/>
        <path d="M863.638 60h-14.277c-2.597 0-4.361-1.579-4.361-4.215 0-3.679.866-9.327 5.652-9.327.506 0 2.646 2.263 5.848 2.263s5.342-2.263 5.848-2.263c4.786 0 5.652 5.648 5.652 9.327 0 2.636-1.764 4.215-4.362 4.215zM856.5 47.5c-3.463 0-6.273-2.8-6.273-6.25S853.037 35 856.5 35c3.463 0 6.273 2.8 6.273 6.25s-2.81 6.25-6.273 6.25z" fill="#DBDBDB" fill-rule="nonzero"/>
        <path d="M107.638 61H93.361C90.764 61 89 59.358 89 56.616c0-3.826.866-9.7 5.652-9.7.506 0 2.646 2.354 5.848 2.354s5.342-2.353 5.848-2.353c4.786 0 5.652 5.873 5.652 9.699 0 2.742-1.764 4.384-4.362 4.384zM100.5 48c-3.463 0-6.273-2.911-6.273-6.5s2.81-6.5 6.273-6.5c3.463 0 6.273 2.911 6.273 6.5s-2.81 6.5-6.273 6.5zM806.638 60h-14.277c-2.597 0-4.361-1.579-4.361-4.215 0-3.679.866-9.327 5.652-9.327.506 0 2.646 2.263 5.848 2.263s5.342-2.263 5.848-2.263c4.786 0 5.652 5.648 5.652 9.327 0 2.636-1.764 4.215-4.362 4.215zM799.5 47.5c-3.463 0-6.273-2.8-6.273-6.25S796.037 35 799.5 35c3.463 0 6.273 2.8 6.273 6.25s-2.81 6.25-6.273 6.25zM107.638 94H93.361C90.764 94 89 92.358 89 89.616c0-3.826.866-9.7 5.652-9.7.506 0 2.646 2.354 5.848 2.354s5.342-2.353 5.848-2.353c4.786 0 5.652 5.873 5.652 9.699 0 2.742-1.764 4.384-4.362 4.384zM100.5 81c-3.463 0-6.273-2.911-6.273-6.5s2.81-6.5 6.273-6.5c3.463 0 6.273 2.911 6.273 6.5s-2.81 6.5-6.273 6.5z" fill="#E8D3A9" fill-rule="nonzero"/>
        <path d="M919.638 60h-14.277c-2.597 0-4.361-1.579-4.361-4.215 0-3.679.866-9.327 5.652-9.327.506 0 2.646 2.263 5.848 2.263s5.342-2.263 5.848-2.263c4.786 0 5.652 5.648 5.652 9.327 0 2.636-1.764 4.215-4.362 4.215zM912.5 47.5c-3.463 0-6.273-2.8-6.273-6.25S909.037 35 912.5 35c3.463 0 6.273 2.8 6.273 6.25s-2.81 6.25-6.273 6.25z" fill="#DBDBDB" fill-rule="nonzero"/>
        <path d="M167.638 61h-14.277c-2.597 0-4.361-1.642-4.361-4.384 0-3.826.866-9.7 5.652-9.7.506 0 2.646 2.354 5.848 2.354s5.342-2.353 5.848-2.353c4.786 0 5.652 5.873 5.652 9.699 0 2.742-1.764 4.384-4.362 4.384zM160.5 48c-3.463 0-6.273-2.911-6.273-6.5s2.81-6.5 6.273-6.5c3.463 0 6.273 2.911 6.273 6.5s-2.81 6.5-6.273 6.5z" fill="#E8D3A9" fill-rule="nonzero"/>
        <path d="M975.638 60h-14.277c-2.597 0-4.361-1.579-4.361-4.215 0-3.679.866-9.327 5.652-9.327.506 0 2.646 2.263 5.848 2.263s5.342-2.263 5.848-2.263c4.786 0 5.652 5.648 5.652 9.327 0 2.636-1.764 4.215-4.362 4.215zM968.5 47.5c-3.463 0-6.273-2.8-6.273-6.25S965.037 35 968.5 35c3.463 0 6.273 2.8 6.273 6.25s-2.81 6.25-6.273 6.25z" fill="#DBDBDB" fill-rule="nonzero"/>
        <text font-family="Futura-Medium, Futura" font-size="18" font-weight="400" fill="#C7A359" transform="translate(0 .861)">
                    <tspan x="3.278" y="19">45–54 Years · 52% · n = 420</tspan>
                </text>
        <text font-family="Futura-Medium, Futura" font-size="18" font-weight="400" fill="#C7A359" transform="translate(0 .861)">
                    <tspan x="702.324" y="19">45–54 Years · 34% · n = 420</tspan>
                </text>
        <path d="M256.638 61h-14.277c-2.597 0-4.361-1.642-4.361-4.384 0-3.826.866-9.7 5.652-9.7.506 0 2.646 2.354 5.848 2.354s5.342-2.353 5.848-2.353c4.786 0 5.652 5.873 5.652 9.699 0 2.742-1.764 4.384-4.362 4.384zM249.5 48c-3.463 0-6.273-2.911-6.273-6.5s2.81-6.5 6.273-6.5c3.463 0 6.273 2.911 6.273 6.5s-2.81 6.5-6.273 6.5zM285.638 94h-14.277c-2.597 0-4.361-1.642-4.361-4.384 0-3.826.866-9.7 5.652-9.7.506 0 2.646 2.354 5.848 2.354s5.342-2.353 5.848-2.353c4.786 0 5.652 5.873 5.652 9.699 0 2.742-1.764 4.384-4.362 4.384zM278.5 81c-3.463 0-6.273-2.911-6.273-6.5s2.81-6.5 6.273-6.5c3.463 0 6.273 2.911 6.273 6.5s-2.81 6.5-6.273 6.5zM285.638 61h-14.277c-2.597 0-4.361-1.642-4.361-4.384 0-3.826.866-9.7 5.652-9.7.506 0 2.646 2.354 5.848 2.354s5.342-2.353 5.848-2.353c4.786 0 5.652 5.873 5.652 9.699 0 2.742-1.764 4.384-4.362 4.384zM278.5 48c-3.463 0-6.273-2.911-6.273-6.5s2.81-6.5 6.273-6.5c3.463 0 6.273 2.911 6.273 6.5s-2.81 6.5-6.273 6.5zM226.638 61h-14.277c-2.597 0-4.361-1.642-4.361-4.384 0-3.826.866-9.7 5.652-9.7.506 0 2.646 2.354 5.848 2.354s5.342-2.353 5.848-2.353c4.786 0 5.652 5.873 5.652 9.699 0 2.742-1.764 4.384-4.362 4.384zM219.5 48c-3.463 0-6.273-2.911-6.273-6.5s2.81-6.5 6.273-6.5c3.463 0 6.273 2.911 6.273 6.5s-2.81 6.5-6.273 6.5zM226.638 94h-14.277c-2.597 0-4.361-1.642-4.361-4.384 0-3.826.866-9.7 5.652-9.7.506 0 2.646 2.354 5.848 2.354s5.342-2.353 5.848-2.353c4.786 0 5.652 5.873 5.652 9.699 0 2.742-1.764 4.384-4.362 4.384zM219.5 81c-3.463 0-6.273-2.911-6.273-6.5s2.81-6.5 6.273-6.5c3.463 0 6.273 2.911 6.273 6.5s-2.81 6.5-6.273 6.5zM168.638 94h-14.277c-2.597 0-4.361-1.642-4.361-4.384 0-3.826.866-9.7 5.652-9.7.506 0 2.646 2.354 5.848 2.354s5.342-2.353 5.848-2.353c4.786 0 5.652 5.873 5.652 9.699 0 2.742-1.764 4.384-4.362 4.384zM161.5 81c-3.463 0-6.273-2.911-6.273-6.5s2.81-6.5 6.273-6.5c3.463 0 6.273 2.911 6.273 6.5s-2.81 6.5-6.273 6.5zM256.638 94h-14.277c-2.597 0-4.361-1.642-4.361-4.384 0-3.826.866-9.7 5.652-9.7.506 0 2.646 2.354 5.848 2.354s5.342-2.353 5.848-2.353c4.786 0 5.652 5.873 5.652 9.699 0 2.742-1.764 4.384-4.362 4.384zM249.5 81c-3.463 0-6.273-2.911-6.273-6.5s2.81-6.5 6.273-6.5c3.463 0 6.273 2.911 6.273 6.5s-2.81 6.5-6.273 6.5zM197.638 95h-14.277c-2.597 0-4.361-1.642-4.361-4.384 0-3.826.866-9.7 5.652-9.7.506 0 2.646 2.354 5.848 2.354s5.342-2.353 5.848-2.353c4.786 0 5.652 5.873 5.652 9.699 0 2.742-1.764 4.384-4.362 4.384zM190.5 82c-3.463 0-6.273-2.911-6.273-6.5s2.81-6.5 6.273-6.5c3.463 0 6.273 2.911 6.273 6.5s-2.81 6.5-6.273 6.5zM138.638 94h-14.277c-2.597 0-4.361-1.642-4.361-4.384 0-3.826.866-9.7 5.652-9.7.506 0 2.646 2.354 5.848 2.354s5.342-2.353 5.848-2.353c4.786 0 5.652 5.873 5.652 9.699 0 2.742-1.764 4.384-4.362 4.384zM131.5 81c-3.463 0-6.273-2.911-6.273-6.5s2.81-6.5 6.273-6.5c3.463 0 6.273 2.911 6.273 6.5s-2.81 6.5-6.273 6.5z" fill="#DBDBDB" fill-rule="nonzero"/>
    </g>
</svg>
