<svg width="979" height="115" viewBox="0 0 979 115" xmlns="http://www.w3.org/2000/svg">
    <g fill="none" fill-rule="evenodd">
        <path d="M18.635 83H4.36C1.764 83 0 81.358 0 78.616c0-3.826.866-9.7 5.65-9.7.507 0 2.647 2.354 5.848 2.354 3.2 0 5.34-2.353 5.846-2.353 4.786 0 5.651 5.873 5.651 9.699 0 2.742-1.764 4.384-4.36 4.384zm-7.137-13c-3.463 0-6.272-2.911-6.272-6.5s2.81-6.5 6.272-6.5 6.271 2.911 6.271 6.5S14.96 70 11.498 70z" fill="#3C6E71" fill-rule="nonzero"/>
        <g fill-rule="nonzero">
            <path d="M718.49 82h-14.274c-2.597 0-4.36-1.579-4.36-4.215 0-3.679.865-9.327 5.65-9.327.506 0 2.646 2.263 5.847 2.263 3.2 0 5.34-2.263 5.847-2.263 4.785 0 5.65 5.648 5.65 9.327 0 2.636-1.764 4.215-4.36 4.215zm-7.137-12.5c-3.463 0-6.272-2.8-6.272-6.25s2.81-6.25 6.272-6.25 6.271 2.8 6.271 6.25-2.809 6.25-6.271 6.25z" fill="#3C6E71"/>
            <path d="M804.472 113h-14.274c-2.597 0-4.36-1.579-4.36-4.215 0-3.679.865-9.327 5.65-9.327.506 0 2.646 2.263 5.847 2.263 3.201 0 5.34-2.263 5.847-2.263 4.785 0 5.65 5.648 5.65 9.327 0 2.636-1.763 4.215-4.36 4.215zm-7.137-12.5c-3.462 0-6.272-2.8-6.272-6.25s2.81-6.25 6.272-6.25 6.271 2.8 6.271 6.25-2.809 6.25-6.271 6.25zM888.455 113H874.18c-2.596 0-4.36-1.579-4.36-4.215 0-3.679.866-9.327 5.65-9.327.507 0 2.646 2.263 5.848 2.263 3.2 0 5.34-2.263 5.846-2.263 4.786 0 5.651 5.648 5.651 9.327 0 2.636-1.764 4.215-4.36 4.215zm-7.138-12.5c-3.462 0-6.27-2.8-6.27-6.25s2.808-6.25 6.27-6.25c3.463 0 6.272 2.8 6.272 6.25s-2.81 6.25-6.272 6.25zM973.437 113h-14.274c-2.597 0-4.36-1.579-4.36-4.215 0-3.679.865-9.327 5.65-9.327.506 0 2.646 2.263 5.847 2.263 3.201 0 5.34-2.263 5.847-2.263 4.785 0 5.65 5.648 5.65 9.327 0 2.636-1.763 4.215-4.36 4.215zm-7.137-12.5c-3.462 0-6.272-2.8-6.272-6.25S962.838 88 966.3 88s6.271 2.8 6.271 6.25-2.809 6.25-6.271 6.25zM833.466 113h-14.274c-2.597 0-4.36-1.579-4.36-4.215 0-3.679.865-9.327 5.65-9.327.506 0 2.646 2.263 5.847 2.263 3.201 0 5.34-2.263 5.847-2.263 4.785 0 5.65 5.648 5.65 9.327 0 2.636-1.763 4.215-4.36 4.215zm-7.137-12.5c-3.462 0-6.272-2.8-6.272-6.25s2.81-6.25 6.272-6.25 6.271 2.8 6.271 6.25-2.809 6.25-6.271 6.25zM917.449 113h-14.275c-2.596 0-4.36-1.579-4.36-4.215 0-3.679.866-9.327 5.65-9.327.507 0 2.646 2.263 5.848 2.263 3.2 0 5.34-2.263 5.846-2.263 4.786 0 5.651 5.648 5.651 9.327 0 2.636-1.764 4.215-4.36 4.215zm-7.138-12.5c-3.462 0-6.27-2.8-6.27-6.25s2.808-6.25 6.27-6.25c3.463 0 6.272 2.8 6.272 6.25s-2.81 6.25-6.272 6.25zM917.449 82h-14.275c-2.596 0-4.36-1.579-4.36-4.215 0-3.679.866-9.327 5.65-9.327.507 0 2.646 2.263 5.848 2.263 3.2 0 5.34-2.263 5.846-2.263 4.786 0 5.651 5.648 5.651 9.327 0 2.636-1.764 4.215-4.36 4.215zm-7.138-12.5c-3.462 0-6.27-2.8-6.27-6.25s2.808-6.25 6.27-6.25c3.463 0 6.272 2.8 6.272 6.25s-2.81 6.25-6.272 6.25zM861.46 113h-14.274c-2.597 0-4.36-1.579-4.36-4.215 0-3.679.865-9.327 5.65-9.327.507 0 2.646 2.263 5.847 2.263 3.201 0 5.34-2.263 5.847-2.263 4.785 0 5.65 5.648 5.65 9.327 0 2.636-1.763 4.215-4.36 4.215zm-7.137-12.5c-3.462 0-6.271-2.8-6.271-6.25S850.86 88 854.323 88c3.462 0 6.271 2.8 6.271 6.25s-2.809 6.25-6.27 6.25zM945.443 113h-14.274c-2.597 0-4.36-1.579-4.36-4.215 0-3.679.865-9.327 5.65-9.327.506 0 2.646 2.263 5.847 2.263 3.2 0 5.34-2.263 5.847-2.263 4.785 0 5.65 5.648 5.65 9.327 0 2.636-1.764 4.215-4.36 4.215zm-7.137-12.5c-3.463 0-6.272-2.8-6.272-6.25s2.81-6.25 6.272-6.25 6.271 2.8 6.271 6.25-2.809 6.25-6.271 6.25zM945.443 82h-14.274c-2.597 0-4.36-1.579-4.36-4.215 0-3.679.865-9.327 5.65-9.327.506 0 2.646 2.263 5.847 2.263 3.2 0 5.34-2.263 5.847-2.263 4.785 0 5.65 5.648 5.65 9.327 0 2.636-1.764 4.215-4.36 4.215zm-7.137-12.5c-3.463 0-6.272-2.8-6.272-6.25s2.81-6.25 6.272-6.25 6.271 2.8 6.271 6.25-2.809 6.25-6.271 6.25zM973.437 82h-14.274c-2.597 0-4.36-1.579-4.36-4.215 0-3.679.865-9.327 5.65-9.327.506 0 2.646 2.263 5.847 2.263 3.201 0 5.34-2.263 5.847-2.263 4.785 0 5.65 5.648 5.65 9.327 0 2.636-1.763 4.215-4.36 4.215zM966.3 69.5c-3.462 0-6.272-2.8-6.272-6.25S962.838 57 966.3 57s6.271 2.8 6.271 6.25-2.809 6.25-6.271 6.25z" fill="#DBDBDB"/>
            <path d="M746.484 113H732.21c-2.597 0-4.36-1.579-4.36-4.215 0-3.679.865-9.327 5.65-9.327.506 0 2.646 2.263 5.847 2.263 3.201 0 5.34-2.263 5.847-2.263 4.785 0 5.65 5.648 5.65 9.327 0 2.636-1.763 4.215-4.36 4.215zm-7.137-12.5c-3.462 0-6.272-2.8-6.272-6.25s2.81-6.25 6.272-6.25 6.271 2.8 6.271 6.25-2.809 6.25-6.271 6.25zM775.478 82h-14.274c-2.597 0-4.36-1.579-4.36-4.215 0-3.679.865-9.327 5.65-9.327.506 0 2.646 2.263 5.847 2.263 3.201 0 5.34-2.263 5.847-2.263 4.785 0 5.65 5.648 5.65 9.327 0 2.636-1.763 4.215-4.36 4.215zm-7.137-12.5c-3.462 0-6.272-2.8-6.272-6.25s2.81-6.25 6.272-6.25 6.271 2.8 6.271 6.25-2.809 6.25-6.271 6.25z" fill="#3C6E71"/>
            <path d="M804.472 82h-14.274c-2.597 0-4.36-1.579-4.36-4.215 0-3.679.865-9.327 5.65-9.327.506 0 2.646 2.263 5.847 2.263 3.201 0 5.34-2.263 5.847-2.263 4.785 0 5.65 5.648 5.65 9.327 0 2.636-1.763 4.215-4.36 4.215zm-7.137-12.5c-3.462 0-6.272-2.8-6.272-6.25s2.81-6.25 6.272-6.25 6.271 2.8 6.271 6.25-2.809 6.25-6.271 6.25zM861.46 82h-14.274c-2.597 0-4.36-1.579-4.36-4.215 0-3.679.865-9.327 5.65-9.327.507 0 2.646 2.263 5.847 2.263 3.201 0 5.34-2.263 5.847-2.263 4.785 0 5.65 5.648 5.65 9.327 0 2.636-1.763 4.215-4.36 4.215zm-7.137-12.5c-3.462 0-6.271-2.8-6.271-6.25S850.86 57 854.323 57c3.462 0 6.271 2.8 6.271 6.25s-2.809 6.25-6.27 6.25z" fill="#DBDBDB"/>
            <path d="M746.484 82H732.21c-2.597 0-4.36-1.579-4.36-4.215 0-3.679.865-9.327 5.65-9.327.506 0 2.646 2.263 5.847 2.263 3.201 0 5.34-2.263 5.847-2.263 4.785 0 5.65 5.648 5.65 9.327 0 2.636-1.763 4.215-4.36 4.215zm-7.137-12.5c-3.462 0-6.272-2.8-6.272-6.25s2.81-6.25 6.272-6.25 6.271 2.8 6.271 6.25-2.809 6.25-6.271 6.25zM775.478 113h-14.274c-2.597 0-4.36-1.579-4.36-4.215 0-3.679.865-9.327 5.65-9.327.506 0 2.646 2.263 5.847 2.263 3.201 0 5.34-2.263 5.847-2.263 4.785 0 5.65 5.648 5.65 9.327 0 2.636-1.763 4.215-4.36 4.215zm-7.137-12.5c-3.462 0-6.272-2.8-6.272-6.25s2.81-6.25 6.272-6.25 6.271 2.8 6.271 6.25-2.809 6.25-6.271 6.25zM718.49 113h-14.274c-2.597 0-4.36-1.579-4.36-4.215 0-3.679.865-9.327 5.65-9.327.506 0 2.646 2.263 5.847 2.263 3.2 0 5.34-2.263 5.847-2.263 4.785 0 5.65 5.648 5.65 9.327 0 2.636-1.764 4.215-4.36 4.215zm-7.137-12.5c-3.463 0-6.272-2.8-6.272-6.25s2.81-6.25 6.272-6.25 6.271 2.8 6.271 6.25-2.809 6.25-6.271 6.25z" fill="#3C6E71"/>
            <path d="M833.466 82h-14.274c-2.597 0-4.36-1.579-4.36-4.215 0-3.679.865-9.327 5.65-9.327.506 0 2.646 2.263 5.847 2.263 3.201 0 5.34-2.263 5.847-2.263 4.785 0 5.65 5.648 5.65 9.327 0 2.636-1.763 4.215-4.36 4.215zm-7.137-12.5c-3.462 0-6.272-2.8-6.272-6.25s2.81-6.25 6.272-6.25 6.271 2.8 6.271 6.25-2.809 6.25-6.271 6.25zM888.455 82H874.18c-2.596 0-4.36-1.579-4.36-4.215 0-3.679.866-9.327 5.65-9.327.507 0 2.646 2.263 5.848 2.263 3.2 0 5.34-2.263 5.846-2.263 4.786 0 5.651 5.648 5.651 9.327 0 2.636-1.764 4.215-4.36 4.215zm-7.138-12.5c-3.462 0-6.27-2.8-6.27-6.25s2.808-6.25 6.27-6.25c3.463 0 6.272 2.8 6.272 6.25s-2.81 6.25-6.272 6.25z" fill="#DBDBDB"/>
        </g>
        <path d="M18.635 115H4.36C1.764 115 0 113.358 0 110.616c0-3.826.866-9.7 5.65-9.7.507 0 2.647 2.354 5.848 2.354 3.2 0 5.34-2.353 5.846-2.353 4.786 0 5.651 5.873 5.651 9.699 0 2.742-1.764 4.384-4.36 4.384zm-7.137-13c-3.463 0-6.272-2.911-6.272-6.5s2.81-6.5 6.272-6.5 6.271 2.911 6.271 6.5-2.809 6.5-6.271 6.5zM78.622 83H64.348c-2.597 0-4.36-1.642-4.36-4.384 0-3.826.865-9.7 5.65-9.7.507 0 2.646 2.354 5.847 2.354 3.201 0 5.34-2.353 5.847-2.353 4.785 0 5.65 5.873 5.65 9.699 0 2.742-1.763 4.384-4.36 4.384zm-7.137-13c-3.462 0-6.271-2.911-6.271-6.5s2.809-6.5 6.271-6.5c3.463 0 6.272 2.911 6.272 6.5s-2.81 6.5-6.272 6.5zM78.622 115H64.348c-2.597 0-4.36-1.642-4.36-4.384 0-3.826.865-9.7 5.65-9.7.507 0 2.646 2.354 5.847 2.354 3.201 0 5.34-2.353 5.847-2.353 4.785 0 5.65 5.873 5.65 9.699 0 2.742-1.763 4.384-4.36 4.384zm-7.137-13c-3.462 0-6.271-2.911-6.271-6.5s2.809-6.5 6.271-6.5c3.463 0 6.272 2.911 6.272 6.5s-2.81 6.5-6.272 6.5zM48.628 83H34.354c-2.596 0-4.36-1.642-4.36-4.384 0-3.826.865-9.7 5.65-9.7.507 0 2.646 2.354 5.847 2.354 3.201 0 5.34-2.353 5.847-2.353 4.785 0 5.651 5.873 5.651 9.699 0 2.742-1.764 4.384-4.36 4.384zm-7.137-13c-3.462 0-6.271-2.911-6.271-6.5s2.809-6.5 6.271-6.5c3.463 0 6.272 2.911 6.272 6.5S44.953 70 41.49 70zM48.628 115H34.354c-2.596 0-4.36-1.642-4.36-4.384 0-3.826.865-9.7 5.65-9.7.507 0 2.646 2.354 5.847 2.354 3.201 0 5.34-2.353 5.847-2.353 4.785 0 5.651 5.873 5.651 9.699 0 2.742-1.764 4.384-4.36 4.384zm-7.137-13c-3.462 0-6.271-2.911-6.271-6.5s2.809-6.5 6.271-6.5c3.463 0 6.272 2.911 6.272 6.5s-2.81 6.5-6.272 6.5zM108.616 83H94.342c-2.597 0-4.36-1.642-4.36-4.384 0-3.826.865-9.7 5.65-9.7.507 0 2.646 2.354 5.847 2.354 3.201 0 5.34-2.353 5.847-2.353 4.785 0 5.65 5.873 5.65 9.699 0 2.742-1.763 4.384-4.36 4.384zm-7.137-13c-3.462 0-6.271-2.911-6.271-6.5s2.809-6.5 6.271-6.5c3.462 0 6.271 2.911 6.271 6.5s-2.809 6.5-6.271 6.5zM108.616 115H94.342c-2.597 0-4.36-1.642-4.36-4.384 0-3.826.865-9.7 5.65-9.7.507 0 2.646 2.354 5.847 2.354 3.201 0 5.34-2.353 5.847-2.353 4.785 0 5.65 5.873 5.65 9.699 0 2.742-1.763 4.384-4.36 4.384zm-7.137-13c-3.462 0-6.271-2.911-6.271-6.5s2.809-6.5 6.271-6.5c3.462 0 6.271 2.911 6.271 6.5s-2.809 6.5-6.271 6.5z" fill="#3C6E71" fill-rule="nonzero"/>
        <text font-family="Futura-Medium, Futura" font-size="18" font-weight="400" fill="#3C6E71" transform="translate(0 .444)">
                    <tspan x=".658" y="19">37% of people aged </tspan>
                    <tspan x=".658" y="43">under 35 own a cat (n = 424).</tspan>
                </text>
        <text font-family="Futura-Medium, Futura" font-size="18" font-weight="400" fill="#3C6E71" transform="translate(0 .444)">
                    <tspan x="699.029" y="37.827">Under 35 Years · 31% · n = 424</tspan>
                </text>
        <path d="M199.597 83h-14.274c-2.597 0-4.36-1.642-4.36-4.384 0-3.826.865-9.7 5.65-9.7.507 0 2.646 2.354 5.847 2.354 3.201 0 5.34-2.353 5.847-2.353 4.785 0 5.65 5.873 5.65 9.699 0 2.742-1.763 4.384-4.36 4.384zm-7.137-13c-3.462 0-6.271-2.911-6.271-6.5s2.809-6.5 6.271-6.5c3.462 0 6.271 2.911 6.271 6.5s-2.809 6.5-6.27 6.5zM199.597 115h-14.274c-2.597 0-4.36-1.642-4.36-4.384 0-3.826.865-9.7 5.65-9.7.507 0 2.646 2.354 5.847 2.354 3.201 0 5.34-2.353 5.847-2.353 4.785 0 5.65 5.873 5.65 9.699 0 2.742-1.763 4.384-4.36 4.384zm-7.137-13c-3.462 0-6.271-2.911-6.271-6.5s2.809-6.5 6.271-6.5c3.462 0 6.271 2.911 6.271 6.5s-2.809 6.5-6.27 6.5zM138.61 83h-14.274c-2.597 0-4.36-1.642-4.36-4.384 0-3.826.865-9.7 5.65-9.7.506 0 2.646 2.354 5.847 2.354 3.2 0 5.34-2.353 5.847-2.353 4.785 0 5.65 5.873 5.65 9.699 0 2.742-1.763 4.384-4.36 4.384zm-7.137-13c-3.463 0-6.272-2.911-6.272-6.5s2.81-6.5 6.272-6.5 6.271 2.911 6.271 6.5-2.809 6.5-6.271 6.5zM138.61 115h-14.274c-2.597 0-4.36-1.642-4.36-4.384 0-3.826.865-9.7 5.65-9.7.506 0 2.646 2.354 5.847 2.354 3.2 0 5.34-2.353 5.847-2.353 4.785 0 5.65 5.873 5.65 9.699 0 2.742-1.763 4.384-4.36 4.384zm-7.137-13c-3.463 0-6.272-2.911-6.272-6.5s2.81-6.5 6.272-6.5 6.271 2.911 6.271 6.5-2.809 6.5-6.271 6.5zM228.591 83h-14.274c-2.597 0-4.36-1.642-4.36-4.384 0-3.826.865-9.7 5.65-9.7.507 0 2.646 2.354 5.847 2.354 3.201 0 5.34-2.353 5.847-2.353 4.785 0 5.65 5.873 5.65 9.699 0 2.742-1.763 4.384-4.36 4.384zm-7.137-13c-3.462 0-6.271-2.911-6.271-6.5s2.809-6.5 6.271-6.5c3.462 0 6.271 2.911 6.271 6.5s-2.809 6.5-6.27 6.5zM228.591 115h-14.274c-2.597 0-4.36-1.642-4.36-4.384 0-3.826.865-9.7 5.65-9.7.507 0 2.646 2.354 5.847 2.354 3.201 0 5.34-2.353 5.847-2.353 4.785 0 5.65 5.873 5.65 9.699 0 2.742-1.763 4.384-4.36 4.384zm-7.137-13c-3.462 0-6.271-2.911-6.271-6.5s2.809-6.5 6.271-6.5c3.462 0 6.271 2.911 6.271 6.5s-2.809 6.5-6.27 6.5zM169.603 83H155.33c-2.596 0-4.36-1.642-4.36-4.384 0-3.826.865-9.7 5.65-9.7.507 0 2.646 2.354 5.847 2.354 3.201 0 5.34-2.353 5.847-2.353 4.785 0 5.65 5.873 5.65 9.699 0 2.742-1.763 4.384-4.36 4.384zm-7.137-13c-3.462 0-6.271-2.911-6.271-6.5s2.809-6.5 6.271-6.5c3.463 0 6.272 2.911 6.272 6.5s-2.81 6.5-6.272 6.5zM169.603 115H155.33c-2.596 0-4.36-1.642-4.36-4.384 0-3.826.865-9.7 5.65-9.7.507 0 2.646 2.354 5.847 2.354 3.201 0 5.34-2.353 5.847-2.353 4.785 0 5.65 5.873 5.65 9.699 0 2.742-1.763 4.384-4.36 4.384zm-7.137-13c-3.462 0-6.271-2.911-6.271-6.5s2.809-6.5 6.271-6.5c3.463 0 6.272 2.911 6.272 6.5s-2.81 6.5-6.272 6.5zM257.585 83h-14.274c-2.597 0-4.36-1.642-4.36-4.384 0-3.826.865-9.7 5.65-9.7.507 0 2.646 2.354 5.847 2.354 3.201 0 5.34-2.353 5.847-2.353 4.785 0 5.65 5.873 5.65 9.699 0 2.742-1.763 4.384-4.36 4.384zm-7.137-13c-3.462 0-6.271-2.911-6.271-6.5s2.809-6.5 6.271-6.5c3.462 0 6.271 2.911 6.271 6.5s-2.809 6.5-6.27 6.5zM257.585 115h-14.274c-2.597 0-4.36-1.642-4.36-4.384 0-3.826.865-9.7 5.65-9.7.507 0 2.646 2.354 5.847 2.354 3.201 0 5.34-2.353 5.847-2.353 4.785 0 5.65 5.873 5.65 9.699 0 2.742-1.763 4.384-4.36 4.384zm-7.137-13c-3.462 0-6.271-2.911-6.271-6.5s2.809-6.5 6.271-6.5c3.462 0 6.271 2.911 6.271 6.5s-2.809 6.5-6.27 6.5zM286.58 83h-14.275c-2.597 0-4.36-1.642-4.36-4.384 0-3.826.865-9.7 5.65-9.7.507 0 2.646 2.354 5.847 2.354 3.201 0 5.34-2.353 5.847-2.353 4.785 0 5.65 5.873 5.65 9.699 0 2.742-1.763 4.384-4.36 4.384zm-7.138-13c-3.462 0-6.271-2.911-6.271-6.5s2.809-6.5 6.271-6.5c3.462 0 6.271 2.911 6.271 6.5s-2.809 6.5-6.27 6.5zM286.58 115h-14.275c-2.597 0-4.36-1.642-4.36-4.384 0-3.826.865-9.7 5.65-9.7.507 0 2.646 2.354 5.847 2.354 3.201 0 5.34-2.353 5.847-2.353 4.785 0 5.65 5.873 5.65 9.699 0 2.742-1.763 4.384-4.36 4.384zm-7.138-13c-3.462 0-6.271-2.911-6.271-6.5s2.809-6.5 6.271-6.5c3.462 0 6.271 2.911 6.271 6.5s-2.809 6.5-6.27 6.5z" fill="#DBDBDB" fill-rule="nonzero"/>
    </g>
</svg>
