<svg width="979" height="92" viewBox="0 0 979 92" xmlns="http://www.w3.org/2000/svg">
    <g fill="none" fill-rule="evenodd">
        <path d="M719.638 91h-14.277c-2.597 0-4.361-1.579-4.361-4.215 0-3.679.866-9.327 5.652-9.327.506 0 2.646 2.263 5.848 2.263s5.342-2.263 5.848-2.263c4.786 0 5.652 5.648 5.652 9.327 0 2.636-1.764 4.215-4.362 4.215zM712.5 78.5c-3.463 0-6.273-2.8-6.273-6.25S709.037 66 712.5 66c3.463 0 6.273 2.8 6.273 6.25s-2.81 6.25-6.273 6.25z" fill="#D68C8C" fill-rule="nonzero"/>
        <path d="M804.638 91h-14.277c-2.597 0-4.361-1.579-4.361-4.215 0-3.679.866-9.327 5.652-9.327.506 0 2.646 2.263 5.848 2.263s5.342-2.263 5.848-2.263c4.786 0 5.652 5.648 5.652 9.327 0 2.636-1.764 4.215-4.362 4.215zM797.5 78.5c-3.463 0-6.273-2.8-6.273-6.25S794.037 66 797.5 66c3.463 0 6.273 2.8 6.273 6.25s-2.81 6.25-6.273 6.25zM888.638 91h-14.277c-2.597 0-4.361-1.579-4.361-4.215 0-3.679.866-9.327 5.652-9.327.506 0 2.646 2.263 5.848 2.263s5.342-2.263 5.848-2.263c4.786 0 5.652 5.648 5.652 9.327 0 2.636-1.764 4.215-4.362 4.215zM881.5 78.5c-3.463 0-6.273-2.8-6.273-6.25S878.037 66 881.5 66c3.463 0 6.273 2.8 6.273 6.25s-2.81 6.25-6.273 6.25z" fill="#DBDBDB" fill-rule="nonzero"/>
        <path d="M747.638 91h-14.277c-2.597 0-4.361-1.579-4.361-4.215 0-3.679.866-9.327 5.652-9.327.506 0 2.646 2.263 5.848 2.263s5.342-2.263 5.848-2.263c4.786 0 5.652 5.648 5.652 9.327 0 2.636-1.764 4.215-4.362 4.215zM740.5 78.5c-3.463 0-6.273-2.8-6.273-6.25S737.037 66 740.5 66c3.463 0 6.273 2.8 6.273 6.25s-2.81 6.25-6.273 6.25z" fill="#D68C8C" fill-rule="nonzero"/>
        <path d="M832.638 91h-14.277c-2.597 0-4.361-1.579-4.361-4.215 0-3.679.866-9.327 5.652-9.327.506 0 2.646 2.263 5.848 2.263s5.342-2.263 5.848-2.263c4.786 0 5.652 5.648 5.652 9.327 0 2.636-1.764 4.215-4.362 4.215zM825.5 78.5c-3.463 0-6.273-2.8-6.273-6.25S822.037 66 825.5 66c3.463 0 6.273 2.8 6.273 6.25s-2.81 6.25-6.273 6.25zM776.638 91h-14.277c-2.597 0-4.361-1.579-4.361-4.215 0-3.679.866-9.327 5.652-9.327.506 0 2.646 2.263 5.848 2.263s5.342-2.263 5.848-2.263c4.786 0 5.652 5.648 5.652 9.327 0 2.636-1.764 4.215-4.362 4.215zM769.5 78.5c-3.463 0-6.273-2.8-6.273-6.25S766.037 66 769.5 66c3.463 0 6.273 2.8 6.273 6.25s-2.81 6.25-6.273 6.25zM861.638 91h-14.277c-2.597 0-4.361-1.579-4.361-4.215 0-3.679.866-9.327 5.652-9.327.506 0 2.646 2.263 5.848 2.263s5.342-2.263 5.848-2.263c4.786 0 5.652 5.648 5.652 9.327 0 2.636-1.764 4.215-4.362 4.215zM854.5 78.5c-3.463 0-6.273-2.8-6.273-6.25S851.037 66 854.5 66c3.463 0 6.273 2.8 6.273 6.25s-2.81 6.25-6.273 6.25z" fill="#DBDBDB" fill-rule="nonzero"/>
        <path d="M19.638 92H5.361C2.764 92 1 90.358 1 87.616c0-3.826.866-9.7 5.652-9.7.506 0 2.646 2.354 5.848 2.354s5.342-2.353 5.848-2.353c4.786 0 5.652 5.873 5.652 9.699C24 90.358 22.236 92 19.638 92zM12.5 79c-3.463 0-6.273-2.911-6.273-6.5S9.037 66 12.5 66c3.463 0 6.273 2.911 6.273 6.5S15.963 79 12.5 79zM719.638 58h-14.277c-2.597 0-4.361-1.579-4.361-4.215 0-3.679.866-9.327 5.652-9.327.506 0 2.646 2.263 5.848 2.263s5.342-2.263 5.848-2.263c4.786 0 5.652 5.648 5.652 9.327 0 2.636-1.764 4.215-4.362 4.215zM712.5 45.5c-3.463 0-6.273-2.8-6.273-6.25S709.037 33 712.5 33c3.463 0 6.273 2.8 6.273 6.25s-2.81 6.25-6.273 6.25zM19.638 59H5.361C2.764 59 1 57.358 1 54.616c0-3.826.866-9.7 5.652-9.7.506 0 2.646 2.354 5.848 2.354s5.342-2.353 5.848-2.353c4.786 0 5.652 5.873 5.652 9.699C24 57.358 22.236 59 19.638 59zM12.5 46c-3.463 0-6.273-2.911-6.273-6.5S9.037 33 12.5 33c3.463 0 6.273 2.911 6.273 6.5S15.963 46 12.5 46z" fill="#D68C8C" fill-rule="nonzero"/>
        <path d="M832.638 58h-14.277c-2.597 0-4.361-1.579-4.361-4.215 0-3.679.866-9.327 5.652-9.327.506 0 2.646 2.263 5.848 2.263s5.342-2.263 5.848-2.263c4.786 0 5.652 5.648 5.652 9.327 0 2.636-1.764 4.215-4.362 4.215zM825.5 45.5c-3.463 0-6.273-2.8-6.273-6.25S822.037 33 825.5 33c3.463 0 6.273 2.8 6.273 6.25s-2.81 6.25-6.273 6.25z" fill="#DBDBDB" fill-rule="nonzero"/>
        <path d="M79.638 92H65.361C62.764 92 61 90.358 61 87.616c0-3.826.866-9.7 5.652-9.7.506 0 2.646 2.354 5.848 2.354s5.342-2.353 5.848-2.353c4.786 0 5.652 5.873 5.652 9.699C84 90.358 82.236 92 79.638 92zM72.5 79c-3.463 0-6.273-2.911-6.273-6.5S69.037 66 72.5 66c3.463 0 6.273 2.911 6.273 6.5S75.963 79 72.5 79zM776.638 58h-14.277c-2.597 0-4.361-1.579-4.361-4.215 0-3.679.866-9.327 5.652-9.327.506 0 2.646 2.263 5.848 2.263s5.342-2.263 5.848-2.263c4.786 0 5.652 5.648 5.652 9.327 0 2.636-1.764 4.215-4.362 4.215zM769.5 45.5c-3.463 0-6.273-2.8-6.273-6.25S766.037 33 769.5 33c3.463 0 6.273 2.8 6.273 6.25s-2.81 6.25-6.273 6.25zM79.638 59H65.361C62.764 59 61 57.358 61 54.616c0-3.826.866-9.7 5.652-9.7.506 0 2.646 2.354 5.848 2.354s5.342-2.353 5.848-2.353c4.786 0 5.652 5.873 5.652 9.699C84 57.358 82.236 59 79.638 59zM72.5 46c-3.463 0-6.273-2.911-6.273-6.5S69.037 33 72.5 33c3.463 0 6.273 2.911 6.273 6.5S75.963 46 72.5 46z" fill="#D68C8C" fill-rule="nonzero"/>
        <path d="M888.638 58h-14.277c-2.597 0-4.361-1.579-4.361-4.215 0-3.679.866-9.327 5.652-9.327.506 0 2.646 2.263 5.848 2.263s5.342-2.263 5.848-2.263c4.786 0 5.652 5.648 5.652 9.327 0 2.636-1.764 4.215-4.362 4.215zM881.5 45.5c-3.463 0-6.273-2.8-6.273-6.25S878.037 33 881.5 33c3.463 0 6.273 2.8 6.273 6.25s-2.81 6.25-6.273 6.25zM946.638 58h-14.277c-2.597 0-4.361-1.579-4.361-4.215 0-3.679.866-9.327 5.652-9.327.506 0 2.646 2.263 5.848 2.263s5.342-2.263 5.848-2.263c4.786 0 5.652 5.648 5.652 9.327 0 2.636-1.764 4.215-4.362 4.215zM939.5 45.5c-3.463 0-6.273-2.8-6.273-6.25S936.037 33 939.5 33c3.463 0 6.273 2.8 6.273 6.25s-2.81 6.25-6.273 6.25z" fill="#DBDBDB" fill-rule="nonzero"/>
        <path d="M49.638 92H35.361C32.764 92 31 90.358 31 87.616c0-3.826.866-9.7 5.652-9.7.506 0 2.646 2.354 5.848 2.354s5.342-2.353 5.848-2.353c4.786 0 5.652 5.873 5.652 9.699C54 90.358 52.236 92 49.638 92zM42.5 79c-3.463 0-6.273-2.911-6.273-6.5S39.037 66 42.5 66c3.463 0 6.273 2.911 6.273 6.5S45.963 79 42.5 79zM747.638 58h-14.277c-2.597 0-4.361-1.579-4.361-4.215 0-3.679.866-9.327 5.652-9.327.506 0 2.646 2.263 5.848 2.263s5.342-2.263 5.848-2.263c4.786 0 5.652 5.648 5.652 9.327 0 2.636-1.764 4.215-4.362 4.215zM740.5 45.5c-3.463 0-6.273-2.8-6.273-6.25S737.037 33 740.5 33c3.463 0 6.273 2.8 6.273 6.25s-2.81 6.25-6.273 6.25zM48.638 59H34.361C31.764 59 30 57.358 30 54.616c0-3.826.866-9.7 5.652-9.7.506 0 2.646 2.354 5.848 2.354s5.342-2.353 5.848-2.353c4.786 0 5.652 5.873 5.652 9.699C53 57.358 51.236 59 48.638 59zM41.5 46c-3.463 0-6.273-2.911-6.273-6.5S38.037 33 41.5 33c3.463 0 6.273 2.911 6.273 6.5S44.963 46 41.5 46z" fill="#D68C8C" fill-rule="nonzero"/>
        <path d="M861.638 58h-14.277c-2.597 0-4.361-1.579-4.361-4.215 0-3.679.866-9.327 5.652-9.327.506 0 2.646 2.263 5.848 2.263s5.342-2.263 5.848-2.263c4.786 0 5.652 5.648 5.652 9.327 0 2.636-1.764 4.215-4.362 4.215zM854.5 45.5c-3.463 0-6.273-2.8-6.273-6.25S851.037 33 854.5 33c3.463 0 6.273 2.8 6.273 6.25s-2.81 6.25-6.273 6.25z" fill="#DBDBDB" fill-rule="nonzero"/>
        <path d="M108.638 59H94.361C91.764 59 90 57.358 90 54.616c0-3.826.866-9.7 5.652-9.7.506 0 2.646 2.354 5.848 2.354s5.342-2.353 5.848-2.353c4.786 0 5.652 5.873 5.652 9.699 0 2.742-1.764 4.384-4.362 4.384zM101.5 46c-3.463 0-6.273-2.911-6.273-6.5s2.81-6.5 6.273-6.5c3.463 0 6.273 2.911 6.273 6.5s-2.81 6.5-6.273 6.5z" fill="#D68C8C" fill-rule="nonzero"/>
        <path d="M804.638 58h-14.277c-2.597 0-4.361-1.579-4.361-4.215 0-3.679.866-9.327 5.652-9.327.506 0 2.646 2.263 5.848 2.263s5.342-2.263 5.848-2.263c4.786 0 5.652 5.648 5.652 9.327 0 2.636-1.764 4.215-4.362 4.215zM797.5 45.5c-3.463 0-6.273-2.8-6.273-6.25S794.037 33 797.5 33c3.463 0 6.273 2.8 6.273 6.25s-2.81 6.25-6.273 6.25zM917.638 58h-14.277c-2.597 0-4.361-1.579-4.361-4.215 0-3.679.866-9.327 5.652-9.327.506 0 2.646 2.263 5.848 2.263s5.342-2.263 5.848-2.263c4.786 0 5.652 5.648 5.652 9.327 0 2.636-1.764 4.215-4.362 4.215zM910.5 45.5c-3.463 0-6.273-2.8-6.273-6.25S907.037 33 910.5 33c3.463 0 6.273 2.8 6.273 6.25s-2.81 6.25-6.273 6.25zM974.638 58h-14.277c-2.597 0-4.361-1.579-4.361-4.215 0-3.679.866-9.327 5.652-9.327.506 0 2.646 2.263 5.848 2.263s5.342-2.263 5.848-2.263c4.786 0 5.652 5.648 5.652 9.327 0 2.636-1.764 4.215-4.362 4.215zM967.5 45.5c-3.463 0-6.273-2.8-6.273-6.25S964.037 33 967.5 33c3.463 0 6.273 2.8 6.273 6.25s-2.81 6.25-6.273 6.25z" fill="#DBDBDB" fill-rule="nonzero"/>
        <text font-family="Futura-Medium, Futura" font-size="18" font-weight="400" fill="#BF6D6D" transform="translate(.718 .343)">
                    <tspan x="0" y="19">35–44 Years · 40% · n = 350</tspan>
                </text>
        <text font-family="Futura-Medium, Futura" font-size="18" font-weight="400" fill="#BF6D6D" transform="translate(.718 .343)">
                    <tspan x="700.672" y="19">35–44 Years · 31% · n = 350</tspan>
                </text>
        <path d="M169.638 59h-14.277c-2.597 0-4.361-1.642-4.361-4.384 0-3.826.866-9.7 5.652-9.7.506 0 2.646 2.354 5.848 2.354s5.342-2.353 5.848-2.353c4.786 0 5.652 5.873 5.652 9.699 0 2.742-1.764 4.384-4.362 4.384zM162.5 46c-3.463 0-6.273-2.911-6.273-6.5s2.81-6.5 6.273-6.5c3.463 0 6.273 2.911 6.273 6.5s-2.81 6.5-6.273 6.5zM198.638 92h-14.277c-2.597 0-4.361-1.642-4.361-4.384 0-3.826.866-9.7 5.652-9.7.506 0 2.646 2.354 5.848 2.354s5.342-2.353 5.848-2.353c4.786 0 5.652 5.873 5.652 9.699 0 2.742-1.764 4.384-4.362 4.384zM191.5 79c-3.463 0-6.273-2.911-6.273-6.5s2.81-6.5 6.273-6.5c3.463 0 6.273 2.911 6.273 6.5s-2.81 6.5-6.273 6.5zM108.638 92H94.361C91.764 92 90 90.358 90 87.616c0-3.826.866-9.7 5.652-9.7.506 0 2.646 2.354 5.848 2.354s5.342-2.353 5.848-2.353c4.786 0 5.652 5.873 5.652 9.699 0 2.742-1.764 4.384-4.362 4.384zM101.5 79c-3.463 0-6.273-2.911-6.273-6.5s2.81-6.5 6.273-6.5c3.463 0 6.273 2.911 6.273 6.5s-2.81 6.5-6.273 6.5zM138.638 92h-14.277c-2.597 0-4.361-1.642-4.361-4.384 0-3.826.866-9.7 5.652-9.7.506 0 2.646 2.354 5.848 2.354s5.342-2.353 5.848-2.353c4.786 0 5.652 5.873 5.652 9.699 0 2.742-1.764 4.384-4.362 4.384zM131.5 79c-3.463 0-6.273-2.911-6.273-6.5s2.81-6.5 6.273-6.5c3.463 0 6.273 2.911 6.273 6.5s-2.81 6.5-6.273 6.5zM198.638 59h-14.277c-2.597 0-4.361-1.642-4.361-4.384 0-3.826.866-9.7 5.652-9.7.506 0 2.646 2.354 5.848 2.354s5.342-2.353 5.848-2.353c4.786 0 5.652 5.873 5.652 9.699 0 2.742-1.764 4.384-4.362 4.384zM191.5 46c-3.463 0-6.273-2.911-6.273-6.5s2.81-6.5 6.273-6.5c3.463 0 6.273 2.911 6.273 6.5s-2.81 6.5-6.273 6.5zM286.638 59h-14.277c-2.597 0-4.361-1.642-4.361-4.384 0-3.826.866-9.7 5.652-9.7.506 0 2.646 2.354 5.848 2.354s5.342-2.353 5.848-2.353c4.786 0 5.652 5.873 5.652 9.699 0 2.742-1.764 4.384-4.362 4.384zM279.5 46c-3.463 0-6.273-2.911-6.273-6.5s2.81-6.5 6.273-6.5c3.463 0 6.273 2.911 6.273 6.5s-2.81 6.5-6.273 6.5zM139.638 59h-14.277c-2.597 0-4.361-1.642-4.361-4.384 0-3.826.866-9.7 5.652-9.7.506 0 2.646 2.354 5.848 2.354s5.342-2.353 5.848-2.353c4.786 0 5.652 5.873 5.652 9.699 0 2.742-1.764 4.384-4.362 4.384zM132.5 46c-3.463 0-6.273-2.911-6.273-6.5s2.81-6.5 6.273-6.5c3.463 0 6.273 2.911 6.273 6.5s-2.81 6.5-6.273 6.5zM168.638 92h-14.277c-2.597 0-4.361-1.642-4.361-4.384 0-3.826.866-9.7 5.652-9.7.506 0 2.646 2.354 5.848 2.354s5.342-2.353 5.848-2.353c4.786 0 5.652 5.873 5.652 9.699 0 2.742-1.764 4.384-4.362 4.384zM161.5 79c-3.463 0-6.273-2.911-6.273-6.5s2.81-6.5 6.273-6.5c3.463 0 6.273 2.911 6.273 6.5s-2.81 6.5-6.273 6.5zM227.638 59h-14.277c-2.597 0-4.361-1.642-4.361-4.384 0-3.826.866-9.7 5.652-9.7.506 0 2.646 2.354 5.848 2.354s5.342-2.353 5.848-2.353c4.786 0 5.652 5.873 5.652 9.699 0 2.742-1.764 4.384-4.362 4.384zM220.5 46c-3.463 0-6.273-2.911-6.273-6.5s2.81-6.5 6.273-6.5c3.463 0 6.273 2.911 6.273 6.5s-2.81 6.5-6.273 6.5zM257.638 59h-14.277c-2.597 0-4.361-1.642-4.361-4.384 0-3.826.866-9.7 5.652-9.7.506 0 2.646 2.354 5.848 2.354s5.342-2.353 5.848-2.353c4.786 0 5.652 5.873 5.652 9.699 0 2.742-1.764 4.384-4.362 4.384zM250.5 46c-3.463 0-6.273-2.911-6.273-6.5s2.81-6.5 6.273-6.5c3.463 0 6.273 2.911 6.273 6.5s-2.81 6.5-6.273 6.5z" fill="#DBDBDB" fill-rule="nonzero"/>
    </g>
</svg>
