<svg width="978" height="95" viewBox="0 0 978 95" xmlns="http://www.w3.org/2000/svg">
    <g fill="none" fill-rule="evenodd">
        <path d="M718.638 94h-14.277c-2.597 0-4.361-1.579-4.361-4.215 0-3.679.866-9.327 5.652-9.327.506 0 2.646 2.263 5.848 2.263s5.342-2.263 5.848-2.263c4.786 0 5.652 5.648 5.652 9.327 0 2.636-1.764 4.215-4.362 4.215zM711.5 81.5c-3.463 0-6.273-2.8-6.273-6.25S708.037 69 711.5 69c3.463 0 6.273 2.8 6.273 6.25s-2.81 6.25-6.273 6.25z" fill="#E8D3A9" fill-rule="nonzero"/>
        <path d="M804.638 94h-14.277c-2.597 0-4.361-1.579-4.361-4.215 0-3.679.866-9.327 5.652-9.327.506 0 2.646 2.263 5.848 2.263s5.342-2.263 5.848-2.263c4.786 0 5.652 5.648 5.652 9.327 0 2.636-1.764 4.215-4.362 4.215zM797.5 81.5c-3.463 0-6.273-2.8-6.273-6.25S794.037 69 797.5 69c3.463 0 6.273 2.8 6.273 6.25s-2.81 6.25-6.273 6.25zM888.638 94h-14.277c-2.597 0-4.361-1.579-4.361-4.215 0-3.679.866-9.327 5.652-9.327.506 0 2.646 2.263 5.848 2.263s5.342-2.263 5.848-2.263c4.786 0 5.652 5.648 5.652 9.327 0 2.636-1.764 4.215-4.362 4.215zM881.5 81.5c-3.463 0-6.273-2.8-6.273-6.25S878.037 69 881.5 69c3.463 0 6.273 2.8 6.273 6.25s-2.81 6.25-6.273 6.25z" fill="#DBDBDB" fill-rule="nonzero"/>
        <path d="M747.638 94h-14.277c-2.597 0-4.361-1.579-4.361-4.215 0-3.679.866-9.327 5.652-9.327.506 0 2.646 2.263 5.848 2.263s5.342-2.263 5.848-2.263c4.786 0 5.652 5.648 5.652 9.327 0 2.636-1.764 4.215-4.362 4.215zM740.5 81.5c-3.463 0-6.273-2.8-6.273-6.25S737.037 69 740.5 69c3.463 0 6.273 2.8 6.273 6.25s-2.81 6.25-6.273 6.25z" fill="#E8D3A9" fill-rule="nonzero"/>
        <path d="M832.638 94h-14.277c-2.597 0-4.361-1.579-4.361-4.215 0-3.679.866-9.327 5.652-9.327.506 0 2.646 2.263 5.848 2.263s5.342-2.263 5.848-2.263c4.786 0 5.652 5.648 5.652 9.327 0 2.636-1.764 4.215-4.362 4.215zM825.5 81.5c-3.463 0-6.273-2.8-6.273-6.25S822.037 69 825.5 69c3.463 0 6.273 2.8 6.273 6.25s-2.81 6.25-6.273 6.25zM917.638 94h-14.277c-2.597 0-4.361-1.579-4.361-4.215 0-3.679.866-9.327 5.652-9.327.506 0 2.646 2.263 5.848 2.263s5.342-2.263 5.848-2.263c4.786 0 5.652 5.648 5.652 9.327 0 2.636-1.764 4.215-4.362 4.215zM910.5 81.5c-3.463 0-6.273-2.8-6.273-6.25S907.037 69 910.5 69c3.463 0 6.273 2.8 6.273 6.25s-2.81 6.25-6.273 6.25z" fill="#DBDBDB" fill-rule="nonzero"/>
        <path d="M776.638 94h-14.277c-2.597 0-4.361-1.579-4.361-4.215 0-3.679.866-9.327 5.652-9.327.506 0 2.646 2.263 5.848 2.263s5.342-2.263 5.848-2.263c4.786 0 5.652 5.648 5.652 9.327 0 2.636-1.764 4.215-4.362 4.215zM769.5 81.5c-3.463 0-6.273-2.8-6.273-6.25S766.037 69 769.5 69c3.463 0 6.273 2.8 6.273 6.25s-2.81 6.25-6.273 6.25z" fill="#E8D3A9" fill-rule="nonzero"/>
        <path d="M861.638 94h-14.277c-2.597 0-4.361-1.579-4.361-4.215 0-3.679.866-9.327 5.652-9.327.506 0 2.646 2.263 5.848 2.263s5.342-2.263 5.848-2.263c4.786 0 5.652 5.648 5.652 9.327 0 2.636-1.764 4.215-4.362 4.215zM854.5 81.5c-3.463 0-6.273-2.8-6.273-6.25S851.037 69 854.5 69c3.463 0 6.273 2.8 6.273 6.25s-2.81 6.25-6.273 6.25zM945.638 94h-14.277c-2.597 0-4.361-1.579-4.361-4.215 0-3.679.866-9.327 5.652-9.327.506 0 2.646 2.263 5.848 2.263s5.342-2.263 5.848-2.263c4.786 0 5.652 5.648 5.652 9.327 0 2.636-1.764 4.215-4.362 4.215zM938.5 81.5c-3.463 0-6.273-2.8-6.273-6.25S935.037 69 938.5 69c3.463 0 6.273 2.8 6.273 6.25s-2.81 6.25-6.273 6.25zM973.638 94h-14.277c-2.597 0-4.361-1.579-4.361-4.215 0-3.679.866-9.327 5.652-9.327.506 0 2.646 2.263 5.848 2.263s5.342-2.263 5.848-2.263c4.786 0 5.652 5.648 5.652 9.327 0 2.636-1.764 4.215-4.362 4.215zM966.5 81.5c-3.463 0-6.273-2.8-6.273-6.25S963.037 69 966.5 69c3.463 0 6.273 2.8 6.273 6.25s-2.81 6.25-6.273 6.25z" fill="#DBDBDB" fill-rule="nonzero"/>
        <path d="M18.638 61H4.361C1.764 61 0 59.358 0 56.616c0-3.826.866-9.7 5.652-9.7.506 0 2.646 2.354 5.848 2.354s5.342-2.353 5.848-2.353c4.786 0 5.652 5.873 5.652 9.699C23 59.358 21.236 61 18.638 61zM11.5 48c-3.463 0-6.273-2.911-6.273-6.5S8.037 35 11.5 35c3.463 0 6.273 2.911 6.273 6.5S14.963 48 11.5 48zM718.638 60h-14.277c-2.597 0-4.361-1.579-4.361-4.215 0-3.679.866-9.327 5.652-9.327.506 0 2.646 2.263 5.848 2.263s5.342-2.263 5.848-2.263c4.786 0 5.652 5.648 5.652 9.327 0 2.636-1.764 4.215-4.362 4.215zM711.5 47.5c-3.463 0-6.273-2.8-6.273-6.25S708.037 35 711.5 35c3.463 0 6.273 2.8 6.273 6.25s-2.81 6.25-6.273 6.25zM197.638 61h-14.277c-2.597 0-4.361-1.642-4.361-4.384 0-3.826.866-9.7 5.652-9.7.506 0 2.646 2.354 5.848 2.354s5.342-2.353 5.848-2.353c4.786 0 5.652 5.873 5.652 9.699 0 2.742-1.764 4.384-4.362 4.384zM190.5 48c-3.463 0-6.273-2.911-6.273-6.5s2.81-6.5 6.273-6.5c3.463 0 6.273 2.911 6.273 6.5s-2.81 6.5-6.273 6.5zM18.638 94H4.361C1.764 94 0 92.358 0 89.616c0-3.826.866-9.7 5.652-9.7.506 0 2.646 2.354 5.848 2.354s5.342-2.353 5.848-2.353c4.786 0 5.652 5.873 5.652 9.699C23 92.358 21.236 94 18.638 94zM11.5 81c-3.463 0-6.273-2.911-6.273-6.5S8.037 68 11.5 68c3.463 0 6.273 2.911 6.273 6.5S14.963 81 11.5 81z" fill="#E8D3A9" fill-rule="nonzero"/>
        <path d="M832.638 60h-14.277c-2.597 0-4.361-1.579-4.361-4.215 0-3.679.866-9.327 5.652-9.327.506 0 2.646 2.263 5.848 2.263s5.342-2.263 5.848-2.263c4.786 0 5.652 5.648 5.652 9.327 0 2.636-1.764 4.215-4.362 4.215zM825.5 47.5c-3.463 0-6.273-2.8-6.273-6.25S822.037 35 825.5 35c3.463 0 6.273 2.8 6.273 6.25s-2.81 6.25-6.273 6.25z" fill="#DBDBDB" fill-rule="nonzero"/>
        <path d="M78.638 61H64.361C61.764 61 60 59.358 60 56.616c0-3.826.866-9.7 5.652-9.7.506 0 2.646 2.354 5.848 2.354s5.342-2.353 5.848-2.353c4.786 0 5.652 5.873 5.652 9.699C83 59.358 81.236 61 78.638 61zM71.5 48c-3.463 0-6.273-2.911-6.273-6.5S68.037 35 71.5 35c3.463 0 6.273 2.911 6.273 6.5S74.963 48 71.5 48zM776.638 60h-14.277c-2.597 0-4.361-1.579-4.361-4.215 0-3.679.866-9.327 5.652-9.327.506 0 2.646 2.263 5.848 2.263s5.342-2.263 5.848-2.263c4.786 0 5.652 5.648 5.652 9.327 0 2.636-1.764 4.215-4.362 4.215zM769.5 47.5c-3.463 0-6.273-2.8-6.273-6.25S766.037 35 769.5 35c3.463 0 6.273 2.8 6.273 6.25s-2.81 6.25-6.273 6.25zM78.638 94H64.361C61.764 94 60 92.358 60 89.616c0-3.826.866-9.7 5.652-9.7.506 0 2.646 2.354 5.848 2.354s5.342-2.353 5.848-2.353c4.786 0 5.652 5.873 5.652 9.699C83 92.358 81.236 94 78.638 94zM71.5 81c-3.463 0-6.273-2.911-6.273-6.5S68.037 68 71.5 68c3.463 0 6.273 2.911 6.273 6.5S74.963 81 71.5 81z" fill="#E8D3A9" fill-rule="nonzero"/>
        <path d="M888.638 60h-14.277c-2.597 0-4.361-1.579-4.361-4.215 0-3.679.866-9.327 5.652-9.327.506 0 2.646 2.263 5.848 2.263s5.342-2.263 5.848-2.263c4.786 0 5.652 5.648 5.652 9.327 0 2.636-1.764 4.215-4.362 4.215zM881.5 47.5c-3.463 0-6.273-2.8-6.273-6.25S878.037 35 881.5 35c3.463 0 6.273 2.8 6.273 6.25s-2.81 6.25-6.273 6.25z" fill="#DBDBDB" fill-rule="nonzero"/>
        <path d="M137.638 61h-14.277c-2.597 0-4.361-1.642-4.361-4.384 0-3.826.866-9.7 5.652-9.7.506 0 2.646 2.354 5.848 2.354s5.342-2.353 5.848-2.353c4.786 0 5.652 5.873 5.652 9.699 0 2.742-1.764 4.384-4.362 4.384zM130.5 48c-3.463 0-6.273-2.911-6.273-6.5s2.81-6.5 6.273-6.5c3.463 0 6.273 2.911 6.273 6.5s-2.81 6.5-6.273 6.5z" fill="#E8D3A9" fill-rule="nonzero"/>
        <path d="M945.638 60h-14.277c-2.597 0-4.361-1.579-4.361-4.215 0-3.679.866-9.327 5.652-9.327.506 0 2.646 2.263 5.848 2.263s5.342-2.263 5.848-2.263c4.786 0 5.652 5.648 5.652 9.327 0 2.636-1.764 4.215-4.362 4.215zM938.5 47.5c-3.463 0-6.273-2.8-6.273-6.25S935.037 35 938.5 35c3.463 0 6.273 2.8 6.273 6.25s-2.81 6.25-6.273 6.25z" fill="#DBDBDB" fill-rule="nonzero"/>
        <path d="M48.638 61H34.361C31.764 61 30 59.358 30 56.616c0-3.826.866-9.7 5.652-9.7.506 0 2.646 2.354 5.848 2.354s5.342-2.353 5.848-2.353c4.786 0 5.652 5.873 5.652 9.699C53 59.358 51.236 61 48.638 61zM41.5 48c-3.463 0-6.273-2.911-6.273-6.5S38.037 35 41.5 35c3.463 0 6.273 2.911 6.273 6.5S44.963 48 41.5 48zM747.638 60h-14.277c-2.597 0-4.361-1.579-4.361-4.215 0-3.679.866-9.327 5.652-9.327.506 0 2.646 2.263 5.848 2.263s5.342-2.263 5.848-2.263c4.786 0 5.652 5.648 5.652 9.327 0 2.636-1.764 4.215-4.362 4.215zM740.5 47.5c-3.463 0-6.273-2.8-6.273-6.25S737.037 35 740.5 35c3.463 0 6.273 2.8 6.273 6.25s-2.81 6.25-6.273 6.25zM48.638 94H34.361C31.764 94 30 92.358 30 89.616c0-3.826.866-9.7 5.652-9.7.506 0 2.646 2.354 5.848 2.354s5.342-2.353 5.848-2.353c4.786 0 5.652 5.873 5.652 9.699C53 92.358 51.236 94 48.638 94zM41.5 81c-3.463 0-6.273-2.911-6.273-6.5S38.037 68 41.5 68c3.463 0 6.273 2.911 6.273 6.5S44.963 81 41.5 81z" fill="#E8D3A9" fill-rule="nonzero"/>
        <path d="M861.638 60h-14.277c-2.597 0-4.361-1.579-4.361-4.215 0-3.679.866-9.327 5.652-9.327.506 0 2.646 2.263 5.848 2.263s5.342-2.263 5.848-2.263c4.786 0 5.652 5.648 5.652 9.327 0 2.636-1.764 4.215-4.362 4.215zM854.5 47.5c-3.463 0-6.273-2.8-6.273-6.25S851.037 35 854.5 35c3.463 0 6.273 2.8 6.273 6.25s-2.81 6.25-6.273 6.25z" fill="#DBDBDB" fill-rule="nonzero"/>
        <path d="M107.638 61H93.361C90.764 61 89 59.358 89 56.616c0-3.826.866-9.7 5.652-9.7.506 0 2.646 2.354 5.848 2.354s5.342-2.353 5.848-2.353c4.786 0 5.652 5.873 5.652 9.699 0 2.742-1.764 4.384-4.362 4.384zM100.5 48c-3.463 0-6.273-2.911-6.273-6.5s2.81-6.5 6.273-6.5c3.463 0 6.273 2.911 6.273 6.5s-2.81 6.5-6.273 6.5zM804.638 60h-14.277c-2.597 0-4.361-1.579-4.361-4.215 0-3.679.866-9.327 5.652-9.327.506 0 2.646 2.263 5.848 2.263s5.342-2.263 5.848-2.263c4.786 0 5.652 5.648 5.652 9.327 0 2.636-1.764 4.215-4.362 4.215zM797.5 47.5c-3.463 0-6.273-2.8-6.273-6.25S794.037 35 797.5 35c3.463 0 6.273 2.8 6.273 6.25s-2.81 6.25-6.273 6.25zM107.638 94H93.361C90.764 94 89 92.358 89 89.616c0-3.826.866-9.7 5.652-9.7.506 0 2.646 2.354 5.848 2.354s5.342-2.353 5.848-2.353c4.786 0 5.652 5.873 5.652 9.699 0 2.742-1.764 4.384-4.362 4.384zM100.5 81c-3.463 0-6.273-2.911-6.273-6.5s2.81-6.5 6.273-6.5c3.463 0 6.273 2.911 6.273 6.5s-2.81 6.5-6.273 6.5z" fill="#E8D3A9" fill-rule="nonzero"/>
        <path d="M917.638 60h-14.277c-2.597 0-4.361-1.579-4.361-4.215 0-3.679.866-9.327 5.652-9.327.506 0 2.646 2.263 5.848 2.263s5.342-2.263 5.848-2.263c4.786 0 5.652 5.648 5.652 9.327 0 2.636-1.764 4.215-4.362 4.215zM910.5 47.5c-3.463 0-6.273-2.8-6.273-6.25S907.037 35 910.5 35c3.463 0 6.273 2.8 6.273 6.25s-2.81 6.25-6.273 6.25z" fill="#DBDBDB" fill-rule="nonzero"/>
        <path d="M167.638 61h-14.277c-2.597 0-4.361-1.642-4.361-4.384 0-3.826.866-9.7 5.652-9.7.506 0 2.646 2.354 5.848 2.354s5.342-2.353 5.848-2.353c4.786 0 5.652 5.873 5.652 9.699 0 2.742-1.764 4.384-4.362 4.384zM160.5 48c-3.463 0-6.273-2.911-6.273-6.5s2.81-6.5 6.273-6.5c3.463 0 6.273 2.911 6.273 6.5s-2.81 6.5-6.273 6.5z" fill="#E8D3A9" fill-rule="nonzero"/>
        <path d="M973.638 60h-14.277c-2.597 0-4.361-1.579-4.361-4.215 0-3.679.866-9.327 5.652-9.327.506 0 2.646 2.263 5.848 2.263s5.342-2.263 5.848-2.263c4.786 0 5.652 5.648 5.652 9.327 0 2.636-1.764 4.215-4.362 4.215zM966.5 47.5c-3.463 0-6.273-2.8-6.273-6.25S963.037 35 966.5 35c3.463 0 6.273 2.8 6.273 6.25s-2.81 6.25-6.273 6.25z" fill="#DBDBDB" fill-rule="nonzero"/>
        <text font-family="Futura-Medium, Futura" font-size="18" font-weight="400" fill="#C7A359" transform="translate(0 .861)">
                    <tspan x=".278" y="19">45–54 Years · 52% · n = 420</tspan>
                </text>
        <text font-family="Futura-Medium, Futura" font-size="18" font-weight="400" fill="#C7A359" transform="translate(0 .861)">
                    <tspan x="700.324" y="19">45–54 Years · 34% · n = 420</tspan>
                </text>
        <path d="M256.638 61h-14.277c-2.597 0-4.361-1.642-4.361-4.384 0-3.826.866-9.7 5.652-9.7.506 0 2.646 2.354 5.848 2.354s5.342-2.353 5.848-2.353c4.786 0 5.652 5.873 5.652 9.699 0 2.742-1.764 4.384-4.362 4.384zM249.5 48c-3.463 0-6.273-2.911-6.273-6.5s2.81-6.5 6.273-6.5c3.463 0 6.273 2.911 6.273 6.5s-2.81 6.5-6.273 6.5zM285.638 94h-14.277c-2.597 0-4.361-1.642-4.361-4.384 0-3.826.866-9.7 5.652-9.7.506 0 2.646 2.354 5.848 2.354s5.342-2.353 5.848-2.353c4.786 0 5.652 5.873 5.652 9.699 0 2.742-1.764 4.384-4.362 4.384zM278.5 81c-3.463 0-6.273-2.911-6.273-6.5s2.81-6.5 6.273-6.5c3.463 0 6.273 2.911 6.273 6.5s-2.81 6.5-6.273 6.5zM285.638 61h-14.277c-2.597 0-4.361-1.642-4.361-4.384 0-3.826.866-9.7 5.652-9.7.506 0 2.646 2.354 5.848 2.354s5.342-2.353 5.848-2.353c4.786 0 5.652 5.873 5.652 9.699 0 2.742-1.764 4.384-4.362 4.384zM278.5 48c-3.463 0-6.273-2.911-6.273-6.5s2.81-6.5 6.273-6.5c3.463 0 6.273 2.911 6.273 6.5s-2.81 6.5-6.273 6.5zM226.638 61h-14.277c-2.597 0-4.361-1.642-4.361-4.384 0-3.826.866-9.7 5.652-9.7.506 0 2.646 2.354 5.848 2.354s5.342-2.353 5.848-2.353c4.786 0 5.652 5.873 5.652 9.699 0 2.742-1.764 4.384-4.362 4.384zM219.5 48c-3.463 0-6.273-2.911-6.273-6.5s2.81-6.5 6.273-6.5c3.463 0 6.273 2.911 6.273 6.5s-2.81 6.5-6.273 6.5zM226.638 94h-14.277c-2.597 0-4.361-1.642-4.361-4.384 0-3.826.866-9.7 5.652-9.7.506 0 2.646 2.354 5.848 2.354s5.342-2.353 5.848-2.353c4.786 0 5.652 5.873 5.652 9.699 0 2.742-1.764 4.384-4.362 4.384zM219.5 81c-3.463 0-6.273-2.911-6.273-6.5s2.81-6.5 6.273-6.5c3.463 0 6.273 2.911 6.273 6.5s-2.81 6.5-6.273 6.5zM168.638 94h-14.277c-2.597 0-4.361-1.642-4.361-4.384 0-3.826.866-9.7 5.652-9.7.506 0 2.646 2.354 5.848 2.354s5.342-2.353 5.848-2.353c4.786 0 5.652 5.873 5.652 9.699 0 2.742-1.764 4.384-4.362 4.384zM161.5 81c-3.463 0-6.273-2.911-6.273-6.5s2.81-6.5 6.273-6.5c3.463 0 6.273 2.911 6.273 6.5s-2.81 6.5-6.273 6.5zM256.638 94h-14.277c-2.597 0-4.361-1.642-4.361-4.384 0-3.826.866-9.7 5.652-9.7.506 0 2.646 2.354 5.848 2.354s5.342-2.353 5.848-2.353c4.786 0 5.652 5.873 5.652 9.699 0 2.742-1.764 4.384-4.362 4.384zM249.5 81c-3.463 0-6.273-2.911-6.273-6.5s2.81-6.5 6.273-6.5c3.463 0 6.273 2.911 6.273 6.5s-2.81 6.5-6.273 6.5zM197.638 95h-14.277c-2.597 0-4.361-1.642-4.361-4.384 0-3.826.866-9.7 5.652-9.7.506 0 2.646 2.354 5.848 2.354s5.342-2.353 5.848-2.353c4.786 0 5.652 5.873 5.652 9.699 0 2.742-1.764 4.384-4.362 4.384zM190.5 82c-3.463 0-6.273-2.911-6.273-6.5s2.81-6.5 6.273-6.5c3.463 0 6.273 2.911 6.273 6.5s-2.81 6.5-6.273 6.5zM138.638 94h-14.277c-2.597 0-4.361-1.642-4.361-4.384 0-3.826.866-9.7 5.652-9.7.506 0 2.646 2.354 5.848 2.354s5.342-2.353 5.848-2.353c4.786 0 5.652 5.873 5.652 9.699 0 2.742-1.764 4.384-4.362 4.384zM131.5 81c-3.463 0-6.273-2.911-6.273-6.5s2.81-6.5 6.273-6.5c3.463 0 6.273 2.911 6.273 6.5s-2.81 6.5-6.273 6.5z" fill="#DBDBDB" fill-rule="nonzero"/>
    </g>
</svg>
